<?xml version="1.0" standalone="no"?>
<!DOCTYPE svg PUBLIC "-//W3C//DTD SVG 20010904//EN"
 "http://www.w3.org/TR/2001/REC-SVG-20010904/DTD/svg10.dtd">
<svg version="1.0" xmlns="http://www.w3.org/2000/svg"
 width="269.000000pt" height="456.000000pt" viewBox="0 0 269.000000 456.000000"
 preserveAspectRatio="xMidYMid meet">
<metadata>
Created by potrace 1.16, written by Peter Selinger 2001-2019
</metadata>
<g transform="translate(0.000000,456.000000) scale(0.100000,-0.100000)"
fill="#000000" stroke="none">
<path d="M1254 4258 c4 -22 13 -53 20 -67 75 -150 92 -176 181 -270 105 -112
158 -161 253 -238 109 -88 199 -193 242 -282 17 -35 33 -61 36 -58 11 10 -18
88 -36 100 -11 6 -20 16 -20 22 0 17 -68 108 -108 145 -21 19 -59 51 -85 70
-26 19 -112 98 -190 175 -151 149 -156 156 -256 378 -17 37 -33 67 -37 67 -4
0 -4 -19 0 -42z"/>
<path d="M1101 4113 c-1 -103 3 -163 9 -163 17 0 11 -77 -10 -131 -26 -65 -90
-140 -162 -192 -55 -38 -72 -67 -48 -82 6 -3 10 -24 10 -47 0 -33 -3 -38 -13
-29 -8 6 -17 8 -20 4 -4 -3 -7 9 -7 28 0 65 -10 82 -41 75 -16 -3 -29 -4 -29
-2 0 6 83 130 91 136 11 9 50 104 65 159 15 57 17 241 3 241 -5 0 -10 -28 -10
-62 -3 -86 -3 -92 -11 -103 -3 -6 -9 -27 -13 -47 -4 -21 -10 -36 -14 -33 -4 2
-13 -13 -21 -33 -7 -20 -25 -57 -40 -82 -15 -25 -35 -66 -45 -92 -10 -26 -21
-46 -24 -43 -12 7 -7 -101 6 -116 6 -8 15 -43 18 -79 10 -92 46 -187 101 -272
26 -40 56 -95 65 -123 l18 -50 0 38 c1 22 -11 64 -29 102 -16 35 -30 71 -30
80 0 8 -4 15 -10 15 -5 0 -10 8 -10 18 0 10 -8 50 -19 89 l-18 71 32 -1 c31
-1 33 -4 44 -52 11 -47 22 -81 79 -236 38 -102 23 -239 -39 -361 -5 -10 -9
-26 -8 -35 0 -10 9 0 19 22 l19 40 1 -40 c1 -51 15 -29 24 39 3 27 13 57 21
66 8 9 19 30 25 46 6 16 20 35 32 43 19 12 20 11 14 -6 -20 -49 -45 -143 -50
-188 -7 -59 0 -45 39 77 15 47 33 95 41 107 19 26 49 29 39 4 -14 -37 -17 -73
-7 -73 6 0 14 16 18 35 12 66 59 73 49 7 -6 -35 -5 -36 9 -18 9 11 16 28 16
39 0 30 34 16 38 -16 4 -34 22 -36 22 -3 0 14 5 28 10 31 16 10 12 22 -19 54
-36 37 -99 52 -113 27 -8 -14 -13 -15 -24 -5 -21 17 -17 67 7 101 12 16 32 57
44 91 12 34 29 78 38 97 8 19 18 52 22 73 4 20 11 40 16 42 14 9 27 -28 22
-59 -4 -22 -2 -27 8 -24 8 3 22 1 31 -4 14 -7 19 -3 24 17 4 14 4 29 1 32 -4
3 -2 14 4 25 15 28 22 16 25 -46 4 -76 50 -204 88 -244 25 -27 31 -42 31 -77
0 -24 -2 -46 -6 -49 -3 -3 -24 4 -46 15 l-41 20 -41 -28 c-34 -24 -40 -33 -40
-63 0 -19 4 -44 9 -55 9 -21 11 -17 13 30 3 44 27 37 46 -14 18 -50 48 -72 37
-27 -3 14 -9 38 -12 54 l-7 27 27 -24 c14 -14 26 -31 26 -38 0 -8 12 -37 27
-66 32 -62 44 -42 19 33 -21 63 -20 67 4 45 11 -10 20 -24 20 -32 0 -8 8 -30
19 -51 10 -20 27 -73 36 -117 17 -77 34 -125 35 -97 0 6 9 12 20 12 13 0 21 9
25 28 19 91 53 162 96 202 30 28 81 129 96 192 19 79 10 323 -12 348 -8 8 -60
67 -115 130 -190 215 -234 263 -271 289 -187 136 -336 306 -402 461 -15 33
-15 26 -16 -127z m107 -77 c17 -38 69 -92 166 -174 50 -42 93 -79 96 -82 3 -4
30 -25 60 -47 61 -45 129 -113 114 -113 -5 0 -23 12 -40 28 -16 15 -75 58
-129 97 -123 86 -280 240 -290 284 -8 37 7 41 23 7z m11 -455 c50 -5 77 -13
93 -28 13 -11 33 -24 46 -28 12 -3 22 -10 22 -14 0 -11 -48 -51 -63 -51 -6 0
-20 -7 -30 -14 -15 -12 -26 -11 -68 1 -52 16 -97 11 -69 -7 18 -12 10 -13 -60
-10 -64 2 -72 7 -47 25 18 13 18 14 -2 24 -11 6 -38 11 -60 11 -23 0 -41 3
-41 8 0 4 9 22 20 40 21 35 63 56 93 48 10 -2 30 2 44 9 19 10 31 11 39 4 7
-5 44 -13 83 -18z m303 -64 c4 -7 17 -6 37 3 40 16 91 8 130 -21 39 -29 26
-39 -50 -39 -31 0 -82 -5 -113 -12 -39 -7 -60 -8 -64 -1 -4 6 -22 18 -40 27
-29 15 -41 38 -19 37 3 0 18 6 32 13 27 14 76 10 87 -7z m-460 -242 c-6 -32
12 -60 52 -79 26 -12 35 -23 38 -48 5 -28 0 -38 -35 -69 -37 -34 -39 -39 -32
-75 6 -34 -4 -44 -12 -11 -28 127 -36 169 -38 202 -1 22 -8 53 -14 68 -16 40
-14 44 17 39 24 -3 28 -8 24 -27z m656 -71 c50 -19 61 -45 61 -141 1 -113 1
-113 -8 -113 -5 0 -21 -10 -36 -22 -16 -12 -38 -23 -49 -24 -30 -2 -68 17 -62
32 3 7 0 14 -6 16 -6 2 -11 38 -11 84 -2 75 0 83 32 132 18 29 35 52 37 52 2
0 21 -7 42 -16z"/>
<path d="M1720 4265 c0 -9 78 -113 90 -120 5 -3 10 -25 10 -47 0 -31 15 -69
59 -152 64 -122 99 -204 132 -311 19 -65 39 -104 39 -78 0 39 -34 179 -45 186
-9 5 -12 18 -8 41 11 70 -68 240 -160 343 -19 21 -37 47 -41 58 -10 31 -76
100 -76 80z"/>
<path d="M1511 4148 c-9 -24 5 -78 19 -78 4 0 12 -13 18 -28 5 -16 49 -76 97
-133 48 -57 95 -115 103 -129 9 -14 42 -53 74 -88 32 -34 58 -67 58 -71 0 -5
20 -35 45 -67 25 -31 45 -54 45 -50 0 27 -79 146 -177 268 -129 160 -186 245
-228 336 -16 34 -33 62 -37 62 -5 0 -12 -10 -17 -22z"/>
<path d="M877 4118 c-35 -99 -56 -177 -62 -233 -5 -33 -14 -70 -22 -82 -8 -12
-13 -30 -11 -40 4 -23 44 52 87 163 32 82 51 217 32 228 -5 3 -16 -13 -24 -36z"/>
<path d="M2121 2939 c-5 -13 -26 -42 -46 -64 -19 -22 -43 -53 -52 -70 -9 -16
-31 -50 -50 -75 -19 -25 -53 -71 -77 -102 -55 -73 -72 -112 -59 -140 10 -24 5
-30 148 177 18 28 40 57 47 65 7 9 22 32 33 52 24 47 31 42 11 -7 -20 -48 -20
-55 2 -55 16 -1 16 -1 0 -11 -12 -7 -18 -22 -17 -47 l0 -37 18 45 c11 25 17
49 14 53 -3 4 0 14 6 21 10 12 42 207 35 215 -2 2 -8 -7 -13 -20z"/>
<path d="M2256 2888 c-4 -18 -13 -71 -21 -118 -9 -47 -33 -141 -55 -210 -21
-69 -52 -170 -69 -225 -16 -55 -43 -140 -60 -189 -34 -98 -34 -128 0 -50 97
223 187 548 215 772 7 57 0 71 -10 20z"/>
<path d="M1252 2761 c-23 -4 -55 -16 -70 -28 -34 -25 -70 -89 -71 -128 -2 -40
-22 -104 -44 -137 -48 -70 -43 -254 9 -385 17 -42 25 -78 22 -103 -2 -27 0
-36 9 -33 19 7 24 34 16 98 -16 150 -9 264 25 400 31 119 48 155 75 155 5 0 5
-6 -1 -13 -6 -7 -23 -62 -38 -122 -21 -87 -27 -132 -26 -215 1 -108 14 -216
33 -283 18 -65 22 -33 9 68 -19 154 -1 415 34 499 15 37 42 52 31 17 -23 -73
-37 -177 -40 -301 l-4 -145 14 110 c25 193 37 259 51 290 l13 30 0 -35 c-1
-49 1 -58 10 -36 8 21 22 -57 39 -214 5 -47 14 -98 20 -115 7 -16 21 -61 32
-100 11 -38 25 -77 30 -85 17 -27 23 -1 12 52 -6 29 -23 109 -37 178 -14 69
-29 132 -33 140 -12 23 -9 207 4 220 9 8 12 -18 13 -102 1 -98 7 -135 44 -279
24 -91 53 -181 65 -200 l22 -34 -5 60 c-4 57 -23 126 -38 141 -4 4 -7 38 -7
75 0 37 -6 96 -14 131 -18 78 -25 221 -11 228 6 3 14 -32 21 -85 6 -49 16
-108 23 -130 6 -22 11 -56 11 -76 0 -19 5 -40 10 -45 6 -6 17 -48 24 -95 16
-93 34 -139 55 -139 10 0 12 9 7 38 -4 20 -9 69 -12 107 -3 39 -9 93 -14 120
-17 94 -48 230 -59 258 -16 40 -14 54 4 36 23 -23 105 -362 105 -435 0 -58 28
-156 30 -109 1 11 3 31 5 45 1 14 6 81 10 150 7 117 6 132 -20 235 -16 61 -35
120 -43 133 -9 14 -12 33 -8 54 6 32 -14 68 -38 68 -5 0 -20 12 -31 26 -33 41
-163 62 -273 45z m135 -57 c62 -5 82 -11 86 -23 3 -9 8 -24 12 -33 5 -13 2
-15 -15 -11 -15 4 -26 -1 -36 -16 -18 -25 -46 -27 -102 -7 -22 8 -42 12 -45
10 -12 -12 -47 32 -47 58 0 32 4 33 147 22z"/>
<path d="M2316 2709 c-32 -210 -104 -461 -177 -617 -21 -45 -39 -85 -39 -89 0
-11 -52 -85 -95 -135 -107 -125 -113 -138 -67 -157 32 -13 62 -58 62 -91 0
-19 -4 -22 -32 -17 -18 3 -43 8 -55 12 -18 6 -23 3 -23 -9 0 -9 -4 -24 -9 -34
-48 -89 -72 -197 -57 -256 6 -26 38 -36 51 -17 3 5 36 19 73 30 52 16 78 19
117 13 48 -8 49 -9 20 -16 -16 -4 -57 -27 -90 -50 -62 -44 -70 -62 -39 -97 8
-8 14 -25 14 -36 0 -33 32 -18 94 43 43 42 62 54 86 54 17 0 39 7 47 16 15 15
18 13 34 -17 10 -19 23 -45 29 -57 5 -13 19 -26 30 -29 11 -3 20 -9 20 -14 0
-5 7 -9 15 -9 8 0 15 -6 16 -12 0 -7 6 0 13 16 11 25 14 26 20 10 6 -16 9 -15
26 11 11 17 20 44 20 60 0 31 -38 96 -75 128 -60 52 -188 91 -252 77 -20 -5
-40 -7 -43 -5 -7 4 -4 67 5 105 9 36 34 60 62 60 13 0 33 5 44 11 15 8 24 7
36 -3 18 -15 73 -20 73 -7 0 5 -3 9 -7 9 -5 0 -14 4 -22 9 -11 7 -9 14 12 34
15 13 27 33 27 43 0 12 3 15 10 8 6 -6 6 -21 1 -41 -5 -16 -5 -36 -1 -44 5 -7
7 -16 5 -19 -2 -4 18 -8 45 -9 46 -1 50 0 49 21 0 13 0 70 1 127 1 96 -1 105
-21 119 -13 9 -36 16 -52 16 -23 1 -35 9 -48 31 -21 35 -24 75 -6 75 6 0 60
-25 120 -55 59 -30 107 -51 107 -47 0 24 -49 74 -122 123 -21 14 -35 29 -31
32 3 4 -2 7 -12 7 -14 0 -16 3 -8 11 11 11 95 1 152 -18 9 -3 -1 11 -22 31
-25 24 -37 43 -35 58 3 26 -10 133 -22 193 -5 22 -10 60 -11 85 -1 25 -5 72
-10 105 -5 33 -11 100 -13 149 -3 59 -10 94 -19 104 -13 12 -16 9 -21 -29z"/>
<path d="M520 2714 c0 -7 7 -47 16 -89 9 -42 14 -85 11 -96 -3 -11 5 -33 19
-51 13 -18 33 -52 44 -76 11 -23 40 -64 66 -90 42 -42 113 -129 139 -170 17
-27 36 -45 41 -39 3 2 -2 12 -11 20 -8 9 -15 18 -15 21 0 3 -14 34 -31 68 -17
35 -35 78 -39 95 -8 32 -7 33 19 27 l26 -5 -25 21 c-14 12 -32 27 -40 34 -9 6
-33 34 -55 61 -22 28 -44 53 -49 56 -4 4 -32 55 -62 115 -30 60 -54 104 -54
98z"/>
<path d="M397 2640 c3 -22 1 -45 -4 -52 -13 -16 -9 -422 5 -498 10 -59 10 -95
-1 -106 -4 -4 -7 -31 -7 -60 0 -44 4 -54 25 -68 29 -19 31 -42 9 -71 -16 -20
-16 -20 -9 3 7 24 -9 31 -19 7 -3 -8 -12 -15 -21 -15 -11 0 -15 -12 -15 -49 0
-27 -3 -56 -6 -65 -4 -11 -1 -16 10 -16 23 0 20 -37 -4 -43 -16 -4 -20 -14
-20 -45 0 -22 6 -47 14 -54 8 -8 16 -23 18 -34 4 -17 6 -16 15 6 7 15 7 29 2
35 -17 17 -9 33 16 31 14 0 25 -4 25 -8 0 -5 5 -8 11 -8 6 0 9 7 5 15 -3 8 -1
15 4 15 6 0 8 16 4 40 -6 38 6 55 21 30 5 -8 12 -7 23 2 12 10 14 10 8 1 -5
-9 -2 -11 9 -7 9 4 14 13 11 21 -3 8 -6 22 -6 31 0 15 -2 15 -10 2 -18 -27
-10 -1 11 40 22 41 39 59 39 41 0 -6 -4 -11 -10 -11 -5 0 -10 -12 -10 -26 0
-21 3 -24 13 -15 10 8 14 7 14 -2 1 -6 6 -38 13 -70 6 -33 9 -66 5 -75 -3 -8
-1 -19 6 -22 6 -4 9 -16 7 -26 -3 -16 -6 -14 -20 10 l-15 30 -8 -25 c-12 -35
-12 -62 -3 -81 9 -19 38 -25 38 -8 0 6 4 10 9 10 11 0 41 -56 41 -76 0 -7 6
-15 13 -17 32 -14 -26 -27 -115 -27 -59 0 -98 -4 -98 -10 0 -5 12 -10 28 -10
15 -1 63 -3 107 -6 67 -4 82 -2 92 13 7 9 16 13 20 8 5 -4 2 -10 -4 -12 -16
-6 -18 -109 -2 -119 15 -9 30 16 26 44 -6 31 15 22 26 -12 13 -39 -16 -70 -60
-63 -42 7 -320 -18 -355 -32 -38 -14 -36 -44 4 -81 39 -35 54 -37 68 -9 9 16
18 19 36 15 29 -8 87 31 79 52 -9 24 39 9 50 -15 11 -25 61 -48 70 -32 4 5 17
6 31 3 21 -5 24 -3 24 19 0 25 16 37 49 37 10 0 43 20 74 44 46 36 54 46 43
55 -11 9 -15 9 -20 -1 -3 -7 -4 0 -2 16 3 23 -5 36 -40 69 -24 23 -44 47 -44
53 0 7 -4 14 -10 16 -5 2 -12 38 -16 82 -3 49 -2 76 4 72 5 -3 12 5 14 19 3
15 1 22 -5 18 -6 -4 -7 4 -3 21 4 18 2 26 -6 26 -10 0 -10 2 -1 8 6 4 15 20
19 36 4 18 9 24 14 16 11 -18 32 -1 25 20 -3 10 -1 21 5 25 6 3 8 11 5 16 -10
16 5 10 27 -11 25 -23 44 -21 40 4 -3 18 32 23 43 6 3 -5 12 -7 19 -4 8 3 32
-7 55 -21 34 -23 39 -31 35 -54 -7 -35 29 -69 87 -82 23 -5 54 -18 69 -29 15
-11 30 -17 34 -13 3 3 14 -2 25 -11 15 -13 20 -14 24 -4 3 8 6 6 6 -5 1 -10 7
-17 13 -15 7 3 19 -2 27 -9 24 -24 -15 -42 -86 -41 -42 1 -69 -4 -87 -15 -14
-9 -38 -17 -54 -17 -15 0 -32 -4 -38 -8 -5 -5 -29 -14 -54 -21 -25 -7 -56 -18
-69 -25 -64 -30 85 -7 253 39 33 8 63 12 67 8 4 -4 -28 -55 -70 -112 -43 -56
-84 -117 -93 -135 -8 -17 -21 -43 -28 -58 -11 -22 -20 -28 -46 -28 -18 0 -39
7 -48 15 -17 17 -42 20 -51 5 -3 -5 -36 -28 -74 -50 -65 -39 -113 -50 -126
-30 -11 17 -25 11 -25 -11 0 -28 18 -59 55 -94 49 -46 51 -72 7 -117 -20 -21
-39 -48 -42 -60 -3 -13 -15 -24 -25 -26 -35 -6 -43 -27 -30 -79 7 -29 10 -93
8 -157 -2 -65 1 -123 8 -144 l11 -34 14 28 c18 33 27 121 13 129 -14 9 -11 65
4 60 6 -3 17 3 24 14 9 15 9 23 -2 37 -13 18 -14 18 -15 2 0 -10 -5 -18 -11
-18 -6 0 -9 10 -7 23 2 18 9 22 33 20 17 0 24 1 17 4 -10 4 -10 8 -2 18 6 8
18 11 25 9 8 -3 35 9 60 26 35 24 45 37 42 51 -3 11 1 23 10 27 8 5 14 12 14
15 -5 37 1 59 14 53 12 -4 14 0 9 19 -3 14 -2 25 4 25 5 0 20 11 33 25 13 13
29 25 34 25 6 0 21 6 35 13 55 29 59 28 77 -11 19 -39 23 -116 10 -170 -9 -32
-8 -32 28 -32 28 0 38 5 42 20 3 11 18 26 34 34 23 11 31 12 46 1 14 -11 15
-15 4 -29 -7 -9 -17 -13 -22 -10 -5 3 -9 -8 -9 -25 0 -16 5 -33 10 -36 6 -3
10 3 10 14 0 12 7 21 15 21 8 0 15 -4 15 -10 0 -5 4 -10 9 -10 5 0 8 17 6 37
-4 51 3 64 29 57 14 -3 27 1 35 10 8 9 20 16 27 16 17 0 18 32 2 48 -9 9 -7
12 9 12 16 0 20 -5 16 -19 -6 -24 5 -31 40 -24 21 4 27 11 27 31 0 14 3 22 6
19 11 -11 11 -81 0 -102 -14 -27 -16 -118 -3 -126 6 -4 1 -20 -13 -39 l-23
-32 29 -28 c33 -30 75 -55 87 -52 4 1 7 -3 7 -9 0 -6 13 3 29 20 32 34 42 37
72 20 15 -7 24 -7 34 1 20 17 127 25 152 11 21 -11 42 1 41 24 -1 15 54 42 77
38 11 -2 31 7 45 20 52 47 52 49 24 111 -20 45 -23 60 -14 71 9 11 7 19 -9 36
-12 13 -21 30 -21 40 0 9 -7 22 -15 29 -8 7 -15 18 -15 25 0 19 -49 75 -65 75
-16 0 -101 58 -189 129 -80 64 -109 108 -143 207 l-24 72 -52 16 c-29 9 -64
24 -78 34 -53 35 -149 127 -149 142 0 23 -119 175 -137 175 -9 0 -30 26 -49
60 -32 58 -122 160 -132 150 -3 -3 5 -13 16 -24 22 -19 49 -78 39 -87 -10 -10
-77 -16 -110 -10 -41 8 -194 154 -233 224 -15 26 -55 93 -90 149 -35 57 -64
110 -64 118 0 9 -9 35 -20 58 -12 23 -31 99 -43 170 -12 70 -25 127 -28 127
-4 0 -5 -18 -2 -40z"/>
<path d="M1284 2365 c-16 -110 -11 -362 9 -448 12 -49 23 -77 30 -74 13 4 14
27 3 102 -4 28 -9 133 -11 235 -3 102 -9 199 -13 215 -9 28 -10 26 -18 -30z"/>
<path d="M1962 2308 c-16 -29 -40 -78 -52 -108 -26 -62 -55 -93 -79 -85 -14 4
-22 -13 -45 -97 -15 -57 -32 -111 -37 -121 -14 -25 -6 -31 20 -17 15 8 21 8
21 0 0 -6 4 -8 10 -5 5 3 7 19 3 35 -4 24 -2 30 12 30 12 0 16 -6 12 -20 -9
-33 11 -23 33 18 11 20 47 75 80 122 33 47 60 90 60 97 0 7 11 36 24 65 34 78
37 88 22 82 -7 -3 -23 -23 -35 -44 -15 -26 -29 -40 -43 -40 -14 0 -18 5 -14
16 3 9 9 28 12 42 4 15 10 32 14 37 9 13 20 45 16 45 -2 0 -17 -24 -34 -52z"/>
<path d="M1350 1733 c0 -31 96 -137 191 -212 20 -16 29 -30 26 -42 -7 -25 0
-24 40 7 30 23 33 30 33 78 0 39 -4 55 -15 60 -10 4 -15 -1 -15 -14 0 -11 -7
-20 -15 -20 -9 0 -15 -9 -15 -25 0 -14 -4 -25 -9 -25 -5 0 -52 45 -103 100
-82 89 -118 116 -118 93z"/>
</g>
</svg>
