<?xml version="1.0" standalone="no"?>
<!DOCTYPE svg PUBLIC "-//W3C//DTD SVG 20010904//EN"
 "http://www.w3.org/TR/2001/REC-SVG-20010904/DTD/svg10.dtd">
<svg version="1.0" xmlns="http://www.w3.org/2000/svg"
 width="269.000000pt" height="456.000000pt" viewBox="0 0 269.000000 456.000000"
 preserveAspectRatio="xMidYMid meet">
<metadata>
Created by potrace 1.16, written by Peter Selinger 2001-2019
</metadata>
<g transform="translate(0.000000,456.000000) scale(0.100000,-0.100000)"
fill="#000000" stroke="none">
<path d="M1364 4449 c-10 -17 25 -85 52 -100 13 -7 24 -16 24 -21 0 -9 -33 8
-62 31 -11 9 -29 11 -50 7 -28 -5 -33 -11 -33 -30 1 -13 9 -35 18 -49 11 -18
13 -27 5 -35 -8 -8 -7 -13 5 -18 9 -3 17 -12 17 -19 0 -20 26 -65 33 -58 4 3
16 -14 27 -39 10 -24 28 -53 40 -63 11 -10 20 -22 20 -27 0 -15 118 -156 154
-183 40 -31 56 -32 56 -4 0 18 2 20 15 9 9 -7 14 -19 11 -26 -3 -8 -1 -13 3
-11 19 5 239 -271 260 -326 17 -43 -12 -23 -57 41 -46 65 -81 99 -169 166 -34
25 -120 104 -191 174 -132 130 -159 169 -214 307 -11 28 -27 68 -37 90 -29 65
-40 104 -30 111 11 7 12 24 1 24 -5 0 -19 -8 -30 -19 -25 -21 -29 -51 -8 -51
8 0 14 -8 14 -17 -4 -56 45 -176 119 -291 40 -64 264 -290 338 -342 120 -84
239 -233 280 -350 8 -24 22 -51 29 -60 13 -14 25 -63 32 -130 1 -14 6 -48 9
-77 5 -36 3 -64 -8 -96 -11 -33 -12 -48 -4 -56 35 -35 47 18 47 219 0 161 -7
209 -23 168 -3 -7 -6 16 -6 52 -1 49 2 61 10 50 27 -37 -9 285 -40 362 -15 37
-34 148 -27 155 3 4 14 -12 23 -36 20 -50 36 -41 27 15 -4 28 -13 43 -30 51
-14 6 -24 7 -24 1 0 -5 -5 -6 -10 -3 -6 4 -8 11 -5 16 4 5 2 9 -4 9 -10 0 -50
54 -159 213 -23 34 -56 75 -72 92 l-30 30 0 -28 c0 -15 8 -35 18 -45 38 -38
86 -118 84 -138 -3 -20 47 -133 97 -219 13 -22 34 -71 47 -110 21 -64 22 -68
4 -45 -11 14 -20 31 -20 38 0 7 -28 68 -63 135 -34 67 -73 147 -87 177 -13 30
-32 66 -41 80 -9 14 -31 53 -48 87 -18 34 -36 65 -41 68 -13 8 13 -52 75 -175
50 -98 109 -240 100 -240 -4 0 -59 83 -99 150 -68 114 -202 283 -218 274 -4
-3 -20 7 -35 21 -16 14 -40 34 -55 43 -28 16 -38 42 -16 42 6 0 3 9 -7 20 -20
23 -31 25 -41 9z m273 -340 c72 -108 80 -124 63 -127 -11 -2 -20 -5 -20 -8 0
-11 46 -74 54 -74 5 0 22 -15 38 -32 27 -31 29 -32 22 -8 -6 25 -6 25 26 -5
53 -50 120 -150 157 -238 40 -92 50 -137 35 -162 -7 -14 -12 -7 -26 36 -31 93
-63 145 -163 261 -130 151 -199 247 -241 338 -19 41 -56 107 -83 147 -27 40
-49 75 -49 79 0 4 24 -13 53 -38 33 -28 82 -90 134 -169z"/>
<path d="M1103 4403 c-24 -8 -43 -18 -43 -23 0 -13 48 -18 62 -6 8 7 7 5 -1
-7 -8 -10 -21 -15 -30 -12 -10 3 -26 -3 -38 -14 -11 -10 -28 -21 -38 -22 -17
-4 -29 -21 -79 -114 -12 -22 -27 -40 -33 -40 -15 0 -76 -112 -70 -128 2 -7 -1
-26 -8 -43 -7 -17 -16 -54 -20 -82 -4 -29 -11 -54 -16 -58 -5 -3 -9 -20 -9
-39 0 -18 -7 -60 -14 -92 -8 -32 -17 -87 -19 -123 -3 -47 -8 -65 -18 -65 -10
0 -16 18 -20 60 -4 42 -6 49 -7 23 -1 -21 -6 -38 -12 -38 -17 0 -11 68 10 118
14 34 20 76 22 155 2 59 0 107 -3 107 -3 0 -11 -26 -17 -57 -7 -32 -21 -98
-32 -148 -30 -132 -35 -293 -12 -386 11 -41 28 -95 40 -122 11 -26 18 -47 15
-47 -3 0 1 -8 9 -17 13 -14 72 -184 102 -288 3 -11 3 12 1 51 -3 42 -14 91
-26 120 -12 27 -28 69 -35 94 -7 25 -26 84 -43 132 -22 64 -32 112 -35 180 -4
84 -4 88 6 46 12 -51 25 -62 30 -26 4 29 28 36 28 8 0 -12 8 -34 19 -48 10
-15 21 -45 24 -68 14 -85 48 -172 101 -252 64 -96 81 -160 72 -266 -5 -67 -5
-69 8 -36 32 85 29 215 -6 287 -6 13 -9 26 -5 29 3 3 -2 15 -12 25 -17 19 -48
145 -38 155 13 13 25 -9 36 -67 7 -34 19 -72 27 -84 32 -49 50 -129 49 -215
-2 -70 -8 -100 -35 -170 -26 -66 -35 -80 -41 -65 -7 18 -8 18 -8 -3 -1 -13 -7
-30 -15 -38 -13 -12 -15 -10 -18 18 -4 47 -22 41 -26 -8 -2 -26 -11 -49 -23
-59 -25 -23 -24 -35 6 -64 14 -13 28 -34 31 -47 8 -32 34 -31 34 2 0 14 4 23
10 19 6 -4 10 7 10 25 0 17 7 45 17 63 9 17 19 43 24 57 4 16 8 -12 8 -74 1
-55 3 -97 6 -94 3 3 12 63 20 134 12 103 20 139 42 181 33 62 48 70 29 16 -23
-66 -46 -291 -26 -263 5 8 10 29 10 45 1 35 21 122 43 181 35 96 73 141 57 68
-5 -20 -5 -46 -1 -57 7 -18 11 -13 28 33 26 68 42 75 40 18 -2 -56 15 -61 27
-9 13 54 36 54 36 2 0 -39 17 -66 24 -39 20 75 37 96 44 53 12 -78 32 -91 32
-19 0 56 21 56 32 -1 5 -22 16 -47 25 -57 15 -17 18 -17 25 -3 5 8 7 19 3 24
-3 5 -1 12 4 15 5 3 14 -6 20 -22 6 -15 15 -34 21 -42 5 -8 14 -27 20 -42 17
-50 33 -33 27 30 -5 55 -4 52 28 -48 18 -58 38 -125 45 -148 10 -41 12 -43 25
-25 14 17 14 17 16 -2 1 -11 1 -27 0 -35 -2 -17 37 -170 39 -155 1 6 1 30 0
55 -2 58 12 44 34 -32 9 -32 20 -58 25 -58 13 0 21 28 14 47 -5 12 -2 15 10
10 9 -3 17 -2 17 2 0 5 -7 12 -15 15 -16 6 -75 120 -75 144 0 6 5 12 10 12 6
0 10 12 10 28 l0 27 -19 -24 c-11 -15 -21 -20 -25 -13 -12 20 37 136 95 222
32 48 66 103 74 124 24 58 46 175 47 248 0 38 3 70 8 73 4 3 0 30 -9 61 -14
45 -39 80 -127 182 -162 188 -372 393 -453 443 -33 20 -121 117 -121 133 0 7
3 16 8 20 15 16 11 102 -8 146 -10 25 -21 57 -25 73 -3 15 -12 27 -21 27 -8 0
-14 7 -12 17 2 11 -6 19 -22 24 l-25 7 25 1 c27 1 66 21 42 21 -7 0 -10 5 -7
11 4 6 13 8 21 5 7 -3 16 -1 19 4 9 15 -85 10 -132 -7z m-127 -396 c1 -23 2
-50 3 -59 1 -9 8 -24 17 -32 14 -14 18 -14 42 1 15 10 31 22 35 28 5 5 6 -11
3 -37 -4 -36 -2 -49 10 -56 23 -13 9 -52 -44 -118 -53 -65 -162 -144 -199
-144 l-25 0 26 43 c15 23 46 80 69 127 40 81 42 90 45 193 4 106 14 138 18 54z
m463 -780 c15 -84 45 -147 70 -147 23 0 41 -28 41 -64 0 -14 -1 -26 -2 -26 -2
0 -21 7 -43 14 -38 13 -43 13 -87 -12 l-48 -27 -59 33 c-60 33 -95 40 -106 22
-4 -6 -11 -8 -16 -4 -14 8 -1 45 27 74 13 14 29 41 35 60 15 46 49 119 58 124
4 3 21 -2 36 -10 32 -16 75 -6 75 17 0 26 9 1 19 -54z"/>
<path d="M843 4305 c-23 -16 -42 -37 -42 -45 -1 -9 -6 -21 -13 -28 -15 -15 -3
-16 24 -1 17 9 19 8 16 -8 -2 -10 -14 -19 -26 -21 -13 -2 -21 -9 -19 -15 2 -7
-9 -23 -24 -37 -73 -66 -163 -333 -172 -510 -2 -39 -3 -42 -14 -25 -6 11 -14
47 -17 80 -8 71 -18 85 -40 54 -18 -26 -23 -149 -6 -149 6 0 10 -12 10 -26 0
-14 4 -23 10 -19 6 3 10 0 10 -8 0 -8 6 -17 14 -20 7 -3 17 -25 21 -49 4 -23
9 -52 11 -63 2 -11 6 -40 8 -65 3 -25 14 -74 25 -109 11 -35 18 -68 15 -73 -3
-4 0 -8 5 -8 6 0 11 -9 11 -20 0 -11 15 -67 34 -123 43 -129 46 -143 56 -253
7 -84 37 -183 63 -209 7 -7 7 -3 2 10 -7 19 -30 133 -40 200 l-5 30 14 -29
c11 -23 14 -25 19 -11 20 52 -25 248 -77 335 -19 30 -41 80 -51 110 -10 30
-27 73 -38 95 -18 37 -19 53 -14 250 4 174 9 220 25 265 29 83 108 244 126
259 34 28 99 136 103 172 3 22 16 47 29 60 13 12 24 25 24 29 0 15 -39 3 -77
-25z"/>
<path d="M2318 3374 c-7 -80 -51 -277 -68 -304 -15 -24 -20 -6 -10 31 6 18 10
49 10 67 0 18 5 42 10 52 7 13 7 21 0 25 -5 3 -10 25 -11 48 -1 34 -4 26 -15
-38 -8 -47 -29 -110 -49 -151 -40 -81 -40 -81 -20 -120 12 -26 12 -43 0 -136
-12 -95 -27 -148 -40 -148 -3 0 -3 12 0 28 13 86 27 263 22 268 -4 4 -15 -13
-26 -38 -10 -24 -37 -65 -60 -92 -22 -26 -41 -51 -41 -56 0 -5 -36 -56 -79
-113 -108 -142 -115 -157 -106 -225 l7 -56 21 35 c31 49 63 89 74 89 9 0 41
48 42 65 1 6 6 11 11 11 6 1 15 2 20 3 6 0 10 7 10 15 0 7 7 19 15 26 12 10
15 9 15 -6 0 -24 -44 -119 -59 -128 -6 -4 -26 -31 -45 -60 -19 -29 -47 -63
-64 -74 -26 -19 -29 -27 -31 -78 -1 -72 -20 -110 -21 -41 0 53 -7 57 -38 24
-19 -20 -22 -34 -21 -93 2 -114 17 -133 18 -21 1 56 5 97 11 97 13 0 7 -164
-8 -210 -6 -19 -16 -55 -23 -80 -14 -49 -28 -73 -30 -50 -1 8 -5 -1 -9 -20
-11 -44 7 -90 34 -90 16 0 17 -3 8 -12 -10 -10 -19 -10 -44 0 -17 6 -35 9 -39
6 -21 -13 -28 158 -15 371 9 138 -5 247 -51 396 -24 79 -32 93 -55 101 -15 5
-33 19 -41 31 -21 32 -116 51 -227 45 -77 -5 -95 -9 -125 -32 -42 -33 -61 -71
-76 -159 -8 -47 -19 -78 -38 -100 -25 -30 -26 -34 -26 -166 1 -122 3 -144 28
-214 40 -115 37 -130 -16 -71 -34 37 -51 70 -78 148 -30 87 -38 103 -73 128
-21 15 -44 28 -50 28 -5 0 -34 15 -64 33 -37 22 -72 57 -114 112 -70 93 -96
141 -133 250 -15 44 -30 82 -32 85 -3 3 -3 -42 -1 -100 1 -58 8 -109 13 -113
7 -6 6 -10 -1 -13 -23 -10 13 -132 69 -230 16 -28 79 -84 87 -79 12 7 107 -92
124 -129 14 -29 87 -106 101 -106 5 0 -14 48 -26 65 -31 44 -52 97 -54 135 -2
25 -1 39 2 33 3 -7 11 -13 18 -13 8 0 17 -15 20 -37 12 -72 15 -81 50 -132 20
-28 33 -56 30 -61 -3 -6 -2 -10 3 -10 11 0 66 -89 60 -95 -2 -2 -40 29 -83 70
-68 64 -90 78 -146 95 -36 11 -78 31 -93 45 -18 16 -26 20 -26 10 0 -17 90
-91 134 -109 17 -7 37 -20 45 -29 7 -10 20 -17 27 -17 8 0 14 -5 14 -11 0 -6
16 -27 35 -47 19 -20 33 -42 31 -49 -3 -6 5 -14 17 -17 15 -4 19 -8 11 -16 -7
-7 -32 -8 -67 -4 -53 6 -60 11 -129 78 -40 40 -85 90 -99 112 -96 144 -164
263 -186 321 -26 70 -72 300 -73 364 0 19 -7 44 -15 55 -13 16 -14 17 -9 1 4
-11 2 -17 -6 -15 -16 4 -63 -176 -55 -215 2 -16 -2 -45 -11 -65 -9 -20 -17
-68 -19 -107 -1 -38 -7 -110 -13 -160 -6 -49 -11 -132 -10 -183 1 -65 -3 -96
-11 -102 -7 -4 -14 -27 -17 -51 -3 -40 -3 -41 5 -11 5 18 11 35 14 38 4 4 1
-82 -4 -96 -1 -3 0 -44 1 -92 1 -59 -2 -88 -9 -88 -6 0 -11 -7 -11 -15 0 -8 4
-15 9 -15 5 0 9 -15 8 -34 0 -19 -5 -33 -9 -30 -4 3 -8 -4 -8 -15 0 -12 -4
-21 -10 -21 -5 0 -10 28 -11 63 -2 94 -16 21 -18 -93 -2 -90 -2 -91 21 -88 19
2 22 -1 20 -20 -3 -23 13 -31 21 -9 3 6 6 2 6 -10 1 -13 -7 -24 -18 -28 -22
-7 -59 -45 -43 -45 6 0 23 5 38 10 15 6 66 13 113 15 l86 4 -3 -42 c-2 -28 2
-49 13 -62 15 -19 16 -16 12 43 -3 64 -1 67 40 56 16 -4 23 -16 28 -50 3 -26
13 -48 21 -51 24 -9 27 3 15 53 -7 25 -10 49 -7 51 3 3 21 2 41 -1 29 -6 34
-10 26 -24 -10 -19 4 -56 18 -47 5 2 11 -4 14 -15 8 -32 -14 -40 -120 -40 -34
-1 -65 -5 -68 -11 -4 -5 -11 -7 -16 -3 -5 3 -42 0 -82 -6 -80 -12 -126 -35
-108 -53 6 -6 11 -19 11 -29 0 -41 21 -65 68 -76 37 -8 50 -8 62 3 8 7 26 16
40 20 14 4 37 18 52 32 l26 25 37 -27 c26 -21 33 -30 23 -36 -11 -7 -11 -9 0
-9 7 0 10 -4 7 -10 -9 -14 13 -50 31 -50 16 0 114 -93 114 -108 0 -6 -12 -18
-27 -27 -25 -17 -27 -17 -87 15 -34 19 -76 41 -95 51 -33 18 -51 17 -51 -1 0
-16 70 -80 122 -112 44 -27 49 -33 34 -43 -17 -13 -62 -9 -72 6 -3 5 -14 9
-25 9 -19 0 -19 0 1 -20 11 -11 24 -20 29 -20 6 0 13 -5 17 -12 9 -14 -146 -2
-160 13 -15 14 -43 11 -50 -7 -3 -9 -6 -39 -6 -67 0 -48 3 -54 40 -85 46 -38
119 -82 138 -82 6 0 12 7 12 16 0 14 3 14 15 4 12 -10 15 -10 15 3 0 14 28 32
37 24 2 -2 -1 -15 -6 -29 -13 -35 -21 -147 -11 -153 5 -3 12 -31 16 -63 3 -31
8 -65 10 -74 1 -9 -4 -19 -12 -22 -21 -8 -99 29 -119 56 -14 20 -16 20 -13 4
7 -43 69 -75 213 -111 299 -73 524 -95 820 -77 202 12 294 26 416 66 103 33
159 62 159 84 0 15 2 15 10 2 6 -10 10 -11 10 -2 0 22 -2 27 -11 25 -13 -4
-12 2 12 98 12 46 30 92 40 102 11 10 19 28 19 40 0 12 9 28 20 35 14 9 20 23
20 51 0 42 -13 59 -33 43 -15 -13 -69 31 -84 68 -12 31 2 89 24 97 12 5 11 8
-8 19 l-24 13 26 1 c14 0 34 7 45 15 17 14 15 15 -36 13 l-55 -3 -3 33 c-2 23
-8 32 -22 32 -25 0 -65 34 -56 49 4 6 22 17 40 25 17 7 39 20 47 29 9 9 32 19
52 22 30 6 37 4 47 -16 11 -20 8 -26 -36 -66 -46 -41 -47 -44 -20 -38 15 3 42
9 60 12 17 3 39 14 49 24 21 22 34 24 40 7 3 -10 8 -9 22 2 16 12 15 10 -3
-16 -12 -17 -33 -42 -47 -55 -28 -27 -35 -51 -7 -26 10 10 22 17 26 17 8 0 61
37 90 62 11 10 22 18 25 18 3 0 6 38 7 85 1 80 3 86 30 111 23 22 29 37 32 79
2 38 -1 55 -12 64 -20 17 -21 55 -1 71 15 12 38 80 30 88 -2 3 -14 -6 -25 -19
l-21 -24 6 42 c4 23 2 50 -3 59 -9 16 -12 13 -26 -21 -9 -21 -19 -49 -22 -62
-8 -30 -20 -37 -37 -21 -12 10 -11 17 4 43 24 40 30 115 10 115 -5 0 -12 -18
-16 -40 -4 -22 -11 -42 -16 -46 -5 -3 -9 -14 -9 -25 0 -23 -5 -23 -61 -4 -78
28 -126 36 -156 25 l-28 -10 24 19 c19 15 31 17 49 10 15 -6 38 -6 60 1 29 8
38 7 45 -5 14 -26 33 -16 46 23 22 66 -3 111 -32 56 -16 -31 -29 -19 -19 18 7
26 7 26 52 11 45 -14 90 -33 143 -60 30 -16 34 -8 12 21 -18 24 -21 107 -3
104 7 -2 17 30 27 81 l16 84 -40 43 c-36 40 -103 85 -147 100 -10 4 -18 10
-18 15 0 10 28 1 50 -15 29 -22 78 -46 93 -46 8 0 20 -7 27 -16 8 -8 22 -20
32 -25 16 -9 18 -5 18 48 0 63 0 62 -95 115 -30 17 -30 17 -5 17 30 1 90 -33
90 -51 0 -8 3 -9 10 -2 12 12 -2 93 -18 103 -5 3 -8 26 -7 51 1 25 -2 65 -7
90 -5 25 -13 79 -18 120 -16 131 -21 154 -31 139 -5 -9 -6 0 -3 22 4 23 1 47
-9 65 -8 17 -20 52 -25 79 -6 28 -15 67 -20 88 -6 20 -8 37 -5 37 2 0 16 -26
31 -57 24 -52 27 -55 30 -31 2 15 -9 92 -24 170 -15 79 -30 159 -33 178 l-7
35 -14 -25 c-9 -16 -15 -68 -18 -147 -2 -68 -8 -123 -13 -123 -4 0 -5 16 -2
35 4 23 2 35 -6 35 -7 0 -11 -20 -11 -52 -1 -35 -4 -48 -9 -38 -8 13 9 237 24
325 13 73 26 256 23 320 l-3 70 -7 -81z m-88 -539 c0 -29 -5 -78 -11 -107 -17
-85 -123 -431 -193 -630 -24 -71 -41 -128 -37 -128 4 0 13 12 20 26 6 15 15
24 18 20 12 -11 -21 -121 -46 -156 -34 -46 -51 -63 -52 -53 0 4 -7 -9 -14 -30
-15 -40 -11 -67 10 -67 17 0 55 -47 55 -68 0 -10 -7 -13 -25 -10 -13 3 -22 1
-19 -3 8 -13 -10 -11 -24 3 -8 8 -15 8 -21 3 -19 -21 -74 -204 -79 -262 -2
-35 -9 -63 -14 -63 -13 0 27 -34 85 -71 26 -17 47 -35 47 -39 0 -5 7 -16 17
-25 15 -16 15 -19 0 -45 -20 -34 -22 -80 -4 -80 7 0 27 15 43 33 16 17 45 46
64 63 19 16 42 41 50 53 15 22 18 23 53 10 34 -12 38 -11 53 7 15 18 15 18 9
-11 -4 -16 -8 -36 -9 -43 0 -8 -27 -41 -58 -75 -32 -34 -58 -65 -58 -69 0 -4
-18 -27 -40 -49 -35 -36 -44 -41 -71 -35 -17 3 -45 18 -63 33 -17 16 -61 43
-97 62 -96 49 -188 127 -219 186 -26 48 -49 118 -34 103 4 -4 13 -3 21 3 9 9
13 8 13 0 0 -6 -4 -11 -10 -11 -5 0 -10 -8 -10 -17 0 -15 2 -15 14 2 17 26 28
68 32 125 2 24 14 65 28 90 14 25 26 64 27 87 3 37 23 82 35 75 2 -1 12 2 22
7 16 9 16 10 -1 28 -9 11 -17 30 -17 42 0 21 3 23 34 17 32 -6 35 -4 45 26 5
18 11 44 13 58 2 19 10 26 31 28 22 3 27 8 27 30 0 18 14 43 41 72 23 25 48
59 56 75 7 17 17 37 22 45 5 8 19 42 31 75 12 33 33 87 46 119 l25 59 -46 -42
c-53 -49 -67 -48 -36 2 11 19 21 41 21 49 0 8 11 36 25 62 14 26 24 50 23 54
-1 8 38 105 67 162 13 27 42 136 49 185 11 80 36 87 36 10z m-147 -227 c-5 -7
-22 -47 -37 -88 -15 -41 -50 -121 -78 -178 -27 -57 -61 -127 -74 -155 l-24
-52 7 50 c3 28 7 57 8 65 6 44 18 91 26 96 5 3 9 14 9 25 0 10 5 19 10 19 6 0
10 7 10 15 0 8 5 15 10 15 6 0 10 6 10 14 0 8 9 21 20 29 20 14 61 79 81 130
6 15 16 27 21 27 7 0 7 -5 1 -12z m-849 -638 c19 -96 33 -139 51 -152 6 -5 2
-8 -7 -8 -10 0 -18 -2 -18 -5 0 -3 23 -39 52 -80 47 -69 163 -185 185 -185 6
0 22 -13 36 -30 29 -32 21 -47 -21 -41 -20 2 -22 -1 -17 -33 5 -40 3 -42 -17
-23 -29 27 -98 78 -98 72 0 -10 34 -42 58 -54 13 -7 21 -15 19 -18 -16 -16
-196 126 -197 155 0 7 -31 57 -69 110 -38 53 -78 115 -89 137 -11 22 -50 90
-86 150 -61 103 -104 208 -109 268 -4 50 16 27 43 -50 15 -43 38 -100 52 -128
14 -27 33 -66 43 -85 10 -19 28 -49 41 -66 12 -17 29 -46 38 -65 l14 -34 1 32
c1 26 4 31 17 26 19 -7 18 -4 -10 120 -11 48 -14 95 -10 164 2 54 7 99 9 102
5 4 9 -69 6 -101 -5 -45 49 -270 70 -292 12 -14 11 4 -5 120 -16 109 -19 159
-15 279 2 68 3 59 9 -55 4 -74 15 -178 24 -230z m231 25 c4 -22 17 -50 29 -63
11 -12 37 -69 56 -125 29 -83 39 -102 58 -107 13 -3 23 -8 23 -12 -1 -5 -3 -7
-4 -5 -2 1 -12 -4 -21 -12 -16 -13 -20 -11 -41 15 -14 16 -24 34 -25 40 0 17
-30 26 -30 9 0 -7 4 -16 9 -19 9 -6 51 -82 51 -92 0 -16 -60 34 -80 67 -14 21
-26 36 -28 34 -2 -2 13 -31 34 -65 20 -33 35 -63 32 -66 -11 -10 -143 148
-159 189 -13 36 -19 42 -42 39 -21 -2 -28 2 -33 22 -3 14 -4 31 -1 38 3 7 6 1
6 -14 1 -23 5 -28 27 -28 26 0 26 1 22 63 -4 62 -3 63 14 43 17 -20 18 -18 12
64 -4 47 -4 83 -2 80 3 -3 18 -50 33 -105 16 -55 33 -103 39 -107 6 -4 7 -8 3
-8 -5 0 -5 -5 -2 -10 4 -6 12 -4 21 5 13 13 12 29 -15 137 -16 68 -32 141 -36
163 -6 47 40 -111 50 -170z m-323 -702 c-42 -60 -89 -130 -103 -158 -28 -54
-64 -70 -89 -41 -19 24 -37 20 -104 -23 -102 -64 -125 -74 -142 -60 -16 13
-19 69 -4 69 5 0 7 7 4 15 -4 11 0 15 16 15 12 0 50 20 84 45 l63 45 -24 51
c-14 28 -23 53 -20 55 2 2 35 11 73 20 38 9 119 28 179 44 61 15 118 28 127
29 13 1 -4 -30 -60 -106z m4 -781 c8 -11 29 -16 66 -16 30 -1 61 -6 69 -12 8
-6 31 -14 52 -18 20 -4 37 -12 38 -19 0 -9 2 -9 5 0 3 7 12 9 20 6 8 -3 14 0
14 6 0 6 5 11 10 11 6 0 10 -9 10 -20 0 -13 7 -20 20 -20 25 0 26 -20 1 -27
-14 -4 -20 -18 -25 -65 -11 -111 -6 -168 15 -168 5 0 9 7 9 15 0 9 20 37 44
63 24 26 49 58 56 71 17 32 29 15 36 -50 3 -30 8 -65 11 -79 l6 -25 7 27 c5
15 9 64 9 109 1 82 17 142 36 135 5 -2 22 5 36 15 25 17 39 16 39 -3 0 -4 -8
-8 -19 -8 -15 0 -19 -11 -25 -61 -13 -131 -4 -201 23 -184 8 4 12 38 11 98 -1
51 -1 96 -1 100 1 5 15 -1 31 -13 28 -20 29 -23 14 -35 -13 -9 -17 -25 -15
-69 2 -78 -22 -114 -73 -108 -29 3 -36 1 -36 -13 0 -10 -5 -15 -14 -12 -7 3
-18 1 -24 -5 -8 -8 -13 -7 -18 5 -3 9 -10 14 -16 11 -5 -3 -4 -12 3 -20 6 -8
9 -17 5 -21 -3 -3 -6 -1 -6 5 0 7 -7 12 -16 12 -9 0 -12 5 -8 11 4 7 1 10 -7
7 -8 -3 -13 -10 -12 -16 2 -6 -14 -16 -35 -24 l-37 -13 45 -6 45 -6 -53 -1
c-37 -2 -51 -5 -46 -14 5 -8 -3 -9 -29 -5 -21 3 -39 1 -43 -5 -9 -14 -274 -3
-400 17 -125 20 -163 32 -191 61 -12 13 -27 24 -33 24 -5 0 -10 4 -10 9 0 5
-10 11 -21 13 -15 2 -23 11 -25 30 -1 15 -7 35 -12 45 -8 13 -5 19 10 28 12 5
24 17 28 25 4 8 12 24 17 36 6 11 7 27 3 35 -16 28 39 113 86 134 10 5 65 9
122 10 56 1 104 4 107 6 10 10 80 -5 91 -19z m911 -7 c11 19 12 19 19 1 4 -10
2 -26 -4 -36 -6 -10 -14 -35 -18 -56 -9 -54 -20 -72 -46 -76 -19 -2 -23 -8
-21 -38 1 -19 0 -29 -4 -21 -3 9 -13 -2 -27 -30 -37 -73 -97 -71 -126 5 -7 20
-8 32 0 40 7 7 10 0 10 -22 0 -22 6 -35 21 -43 33 -17 63 2 89 58 19 40 22 59
17 113 -4 45 -1 70 7 83 17 22 22 22 29 -5 8 -27 14 -22 21 17 6 42 7 43 15
15 7 -24 7 -24 18 -5z"/>
<path d="M942 474 c2 -15 14 -20 51 -22 l47 -3 -3 -116 c-1 -79 2 -117 9 -120
8 -3 14 32 19 110 l7 113 45 0 c26 -1 48 4 50 10 5 14 -63 30 -160 40 -64 6
-69 5 -65 -12z"/>
<path d="M1190 468 c0 -4 6 -8 13 -8 11 0 13 -28 9 -145 -4 -127 -3 -145 11
-145 18 0 30 30 21 54 -11 30 5 62 43 83 45 25 83 57 83 69 0 4 -5 3 -11 -3
-6 -6 -17 -9 -24 -6 -7 2 -28 -3 -45 -12 -18 -9 -33 -15 -35 -13 -2 2 -5 23
-7 48 -2 37 0 45 16 48 11 2 16 0 12 -7 -8 -12 25 -31 55 -31 21 0 19 4 -18
40 -35 33 -47 39 -82 37 -23 -1 -41 -5 -41 -9z"/>
</g>
</svg>
