<?xml version="1.0" standalone="no"?>
<!DOCTYPE svg PUBLIC "-//W3C//DTD SVG 20010904//EN"
 "http://www.w3.org/TR/2001/REC-SVG-20010904/DTD/svg10.dtd">
<svg version="1.0" xmlns="http://www.w3.org/2000/svg"
 width="1216.000000pt" height="1216.000000pt" viewBox="0 0 1216.000000 1216.000000"
 preserveAspectRatio="xMidYMid meet">
<metadata>
Created by potrace 1.11, written by Peter Selinger 2001-2013
</metadata>
<g transform="translate(0.000000,1216.000000) scale(0.100000,-0.100000)"
fill="#000000" stroke="none">
<path d="M6139 11869 c-14 -27 -6 -68 27 -136 28 -57 98 -143 117 -143 12 0
57 -43 57 -53 0 -13 -50 9 -110 48 -36 23 -74 47 -86 53 -40 21 -183 -4 -185
-32 0 -6 -2 -20 -4 -31 -5 -24 22 -111 45 -145 27 -40 29 -55 12 -90 -12 -24
-13 -35 -5 -37 26 -9 63 -46 63 -63 0 -46 58 -146 94 -160 13 -5 40 -46 75
-115 30 -59 71 -123 92 -143 20 -20 51 -64 69 -97 18 -33 35 -62 39 -65 3 -3
22 -25 41 -50 57 -74 64 -83 85 -105 11 -12 37 -42 58 -68 106 -130 246 -247
296 -247 21 0 36 34 33 73 0 9 5 17 11 17 26 -1 49 -30 54 -69 3 -23 9 -41 14
-41 5 0 38 -29 74 -65 37 -36 64 -65 62 -65 -3 0 9 -15 26 -33 37 -38 35 -36
195 -234 67 -84 122 -157 122 -162 0 -6 4 -11 8 -11 4 0 15 -12 24 -27 9 -16
25 -37 35 -48 46 -51 139 -205 154 -257 20 -71 -69 7 -161 142 -21 30 -47 64
-59 74 -11 11 -21 23 -21 29 0 5 -44 52 -97 104 -112 108 -102 99 -208 182
-100 79 -150 119 -185 151 -15 14 -65 59 -111 100 -93 83 -485 472 -539 535
-110 126 -190 262 -275 465 -15 36 -31 74 -36 85 -4 11 -25 61 -45 110 -20 50
-47 115 -61 145 -31 68 -83 222 -83 245 0 9 9 28 19 42 22 27 18 53 -9 53 -22
0 -93 -56 -114 -92 -28 -47 -19 -88 22 -94 20 -3 26 -12 28 -42 7 -109 43
-239 100 -367 10 -22 18 -42 19 -45 3 -14 113 -222 140 -265 54 -86 106 -162
122 -180 10 -11 29 -33 41 -50 59 -77 367 -394 544 -560 127 -119 149 -138
283 -242 72 -56 169 -139 216 -185 99 -96 224 -240 266 -305 9 -15 23 -32 30
-36 7 -4 13 -12 13 -16 0 -5 22 -41 49 -82 46 -71 141 -258 141 -278 0 -15 61
-144 75 -161 16 -18 53 -109 60 -147 12 -66 23 -139 24 -153 0 -8 3 -33 6 -55
3 -22 7 -53 9 -70 27 -191 26 -287 -2 -380 -36 -120 -36 -132 -3 -166 17 -16
36 -27 44 -23 19 7 39 45 40 78 1 14 4 26 7 26 6 0 7 17 14 172 2 53 6 101 8
105 13 24 -2 599 -17 678 -8 39 -14 44 -30 22 -21 -29 -26 -6 -26 122 -1 121
5 156 22 130 34 -53 32 205 -5 461 -2 19 -8 62 -11 95 -4 33 -9 63 -11 66 -1
3 -6 28 -9 55 -4 27 -9 58 -13 69 -7 23 -8 28 -16 78 -3 21 -11 47 -16 58 -6
10 -8 19 -5 19 3 0 -1 16 -9 35 -8 19 -12 35 -9 35 3 0 1 6 -4 13 -11 12 -23
58 -49 187 -3 14 -7 41 -9 60 -2 19 -5 35 -5 35 -1 0 -4 24 -7 54 -7 75 13 64
61 -35 21 -43 43 -82 50 -86 31 -21 40 70 15 165 -11 41 -59 96 -86 99 -10 0
-25 2 -33 2 -8 1 -20 -5 -26 -13 -10 -12 -13 -11 -23 7 -7 13 -9 27 -6 32 4 6
-8 23 -26 38 -18 15 -66 72 -107 127 -40 55 -80 108 -88 118 -8 9 -14 21 -14
26 0 4 -9 16 -20 26 -11 10 -20 24 -20 31 0 7 -4 14 -8 16 -4 2 -39 48 -77
103 -113 165 -151 217 -190 264 -76 91 -97 113 -127 140 l-34 30 3 -42 c7 -97
17 -122 75 -182 82 -85 192 -279 202 -357 5 -46 27 -105 84 -233 43 -96 170
-341 192 -370 18 -25 126 -308 135 -358 2 -9 6 -21 10 -26 3 -5 2 -12 -3 -15
-12 -7 -71 88 -87 142 -8 26 -73 164 -144 307 -71 143 -181 366 -244 496 -63
129 -121 242 -128 250 -8 8 -25 34 -38 59 -133 255 -176 330 -191 330 -18 0
56 -171 189 -437 45 -90 81 -167 81 -173 0 -5 5 -10 10 -10 6 0 10 -5 10 -10
0 -6 8 -29 19 -53 58 -130 111 -254 111 -260 0 -3 5 -18 12 -34 28 -69 44
-123 37 -123 -9 0 -155 219 -275 413 -93 150 -237 354 -349 493 -95 118 -202
227 -215 219 -14 -9 -38 7 -121 76 -40 33 -94 75 -120 91 -25 17 -54 45 -64
61 -18 30 -18 31 4 48 26 22 19 42 -30 83 -37 32 -64 33 -80 5z m301 -408 c62
-49 110 -92 129 -115 9 -10 23 -26 31 -35 52 -57 110 -131 110 -139 0 -6 3
-12 8 -14 14 -6 172 -233 172 -248 0 -5 4 -10 8 -10 5 0 14 -10 21 -22 6 -13
19 -35 29 -50 106 -164 116 -197 65 -213 -18 -5 -33 -14 -33 -21 0 -31 133
-204 157 -204 11 0 120 -106 132 -128 15 -27 23 -7 13 32 -10 36 2 63 14 32 3
-9 11 -16 18 -16 15 0 121 -117 193 -212 79 -105 231 -361 234 -395 0 -5 4
-12 9 -18 12 -15 74 -169 100 -249 26 -80 34 -169 18 -208 -20 -53 -36 -34
-78 92 -54 164 -128 304 -238 450 -31 41 -59 77 -62 80 -3 3 -27 32 -55 65
-27 33 -52 62 -55 65 -3 3 -24 28 -45 55 -22 28 -47 57 -55 65 -26 25 -182
219 -261 325 -145 193 -201 281 -299 475 -82 163 -101 197 -185 338 -6 9 -40
62 -76 117 -114 173 -116 183 -19 106z"/>
<path d="M5636 11782 c-2 -1 -21 -5 -42 -7 -165 -20 -318 -96 -242 -121 35
-11 117 -7 133 6 10 8 15 9 15 1 0 -20 -52 -45 -98 -47 -33 -2 -58 -12 -87
-34 -22 -17 -65 -42 -96 -56 -60 -28 -101 -78 -174 -219 -60 -113 -93 -161
-139 -198 -73 -61 -180 -260 -185 -347 -1 -25 -15 -88 -31 -140 -16 -52 -32
-113 -36 -135 -4 -22 -9 -49 -11 -60 -2 -11 -6 -29 -7 -40 -10 -62 -19 -95
-26 -95 -15 0 -24 -40 -34 -145 -3 -33 -8 -71 -11 -85 -3 -14 -8 -45 -11 -70
-3 -25 -8 -48 -10 -51 -2 -3 -6 -19 -8 -35 -3 -16 -8 -40 -11 -54 -3 -14 -8
-41 -11 -60 -2 -19 -6 -46 -9 -60 -3 -14 -7 -52 -10 -85 -11 -132 -15 -164
-25 -189 -16 -43 -55 -28 -62 24 -2 14 -6 30 -9 35 -3 6 -7 30 -9 55 -1 25 -3
55 -4 67 -3 37 -16 39 -17 2 -1 -51 -13 -84 -31 -87 -42 -8 -30 140 22 292 16
47 32 97 35 113 3 15 7 39 10 53 16 84 27 472 15 520 -6 24 -7 24 -17 5 -6
-11 -14 -38 -18 -60 -12 -59 -11 -56 -34 -157 -11 -51 -23 -104 -25 -118 -3
-14 -18 -88 -35 -165 -30 -142 -35 -165 -46 -245 -32 -218 -37 -539 -10 -705
13 -82 36 -178 47 -191 5 -7 8 -16 7 -20 -1 -5 0 -16 4 -24 6 -16 41 -122 42
-130 1 -3 9 -23 19 -45 30 -68 48 -126 42 -140 -2 -7 3 -20 13 -29 17 -15 59
-108 99 -216 11 -30 23 -64 28 -75 4 -11 8 -26 10 -33 1 -8 6 -21 10 -30 4 -9
8 -19 9 -22 1 -3 7 -18 13 -33 7 -16 12 -32 12 -37 0 -5 20 -68 44 -142 24
-73 47 -148 51 -166 4 -18 10 -31 13 -28 8 9 -1 183 -13 246 -4 23 -7 36 -20
95 -7 37 -22 79 -63 180 -22 55 -52 141 -67 190 -15 50 -30 97 -33 105 -3 8
-6 17 -6 20 -1 3 -6 19 -13 35 -16 44 -92 277 -98 300 -2 11 -9 38 -15 60 -6
22 -13 58 -16 80 -2 22 -7 47 -10 57 -10 34 -27 355 -18 346 3 -4 7 -14 9 -25
2 -10 4 -19 5 -20 2 -2 3 -6 4 -10 9 -44 31 -105 42 -114 20 -16 31 -4 39 41
4 22 13 47 22 55 15 16 42 20 44 8 0 -5 2 -15 4 -23 2 -8 5 -27 8 -41 5 -25
14 -45 66 -144 11 -22 27 -69 35 -105 8 -36 22 -99 32 -140 37 -166 117 -362
202 -493 14 -23 27 -44 27 -47 0 -3 15 -26 33 -52 17 -26 32 -51 32 -57 0 -6
5 -11 10 -11 6 0 10 -6 10 -14 0 -8 6 -21 13 -28 7 -7 14 -16 16 -20 1 -4 13
-33 27 -64 37 -83 76 -241 74 -301 0 -17 0 -90 0 -105 1 -27 -10 -175 -15
-205 -7 -46 2 -41 26 15 22 51 44 138 55 217 8 61 8 279 0 320 -3 17 -9 46
-12 65 -6 40 -30 119 -52 170 -9 19 -16 51 -17 72 0 21 -12 52 -28 75 -24 35
-58 122 -71 183 -3 14 -10 43 -16 65 -16 62 -23 162 -12 169 36 22 71 -63 108
-258 8 -44 41 -123 80 -193 19 -35 32 -63 29 -63 -3 0 0 -10 7 -22 6 -13 13
-28 14 -34 1 -6 9 -36 17 -65 9 -30 19 -79 24 -109 10 -67 9 -391 -2 -440 -4
-19 -9 -42 -10 -50 -2 -8 -4 -15 -5 -15 -1 0 -3 -10 -6 -22 -5 -30 -75 -214
-107 -285 -28 -61 -46 -71 -68 -38 -13 19 -14 17 -16 -25 -2 -48 -27 -101 -51
-110 -8 -3 -17 -4 -19 -1 -4 4 -11 39 -16 82 -2 16 -9 38 -15 49 -12 19 -12
19 -26 2 -8 -11 -17 -38 -21 -60 -16 -106 -29 -147 -57 -178 -72 -79 -72 -99
4 -180 28 -30 65 -83 82 -119 47 -98 87 -94 98 11 3 26 10 35 26 37 17 3 22
11 23 38 2 48 4 64 13 101 4 18 7 34 6 35 -1 2 10 26 24 54 14 29 26 57 26 63
0 6 4 11 8 11 4 0 14 21 21 48 11 39 14 43 21 27 4 -11 8 -40 9 -65 3 -62 9
-265 10 -324 1 -44 11 -57 17 -23 2 7 5 21 7 32 3 11 8 47 12 80 4 33 9 71 11
85 2 14 6 50 10 80 13 119 23 192 29 230 3 14 7 39 10 55 14 82 34 157 47 173
6 6 8 12 4 12 -8 0 45 103 57 111 5 3 8 10 8 15 0 5 9 19 19 32 11 12 20 27
20 32 0 6 5 10 10 10 15 0 12 -22 -16 -117 -14 -49 -27 -101 -29 -118 -2 -16
-7 -50 -11 -75 -4 -25 -8 -55 -8 -67 -1 -13 -3 -23 -6 -23 -3 0 -5 -12 -6 -27
0 -16 -4 -53 -8 -83 -12 -85 -16 -279 -7 -285 12 -7 32 44 36 91 3 37 11 98
21 156 4 26 35 153 54 223 4 17 13 44 20 60 6 17 11 30 10 30 -2 0 10 34 42
115 48 122 108 217 129 205 6 -5 6 -19 -6 -90 -14 -80 -12 -138 3 -163 14 -21
15 -22 27 -5 7 10 16 29 20 43 4 14 21 53 36 88 16 34 29 65 29 68 0 3 11 16
24 30 31 35 38 21 41 -80 2 -102 11 -132 32 -114 16 13 30 44 37 83 9 51 47
114 67 115 13 0 29 -56 32 -110 1 -30 6 -61 10 -67 5 -7 6 -13 2 -13 -3 0 -1
-9 5 -20 19 -36 39 -23 56 38 37 131 86 200 98 140 3 -13 13 -58 23 -101 31
-143 61 -143 70 -1 3 49 11 100 17 113 l13 23 21 -27 c12 -15 22 -33 23 -39 0
-6 2 -18 4 -26 2 -8 8 -31 13 -50 13 -51 51 -121 80 -148 23 -22 26 -22 41 -7
9 9 16 35 17 63 2 64 2 62 19 55 9 -3 35 -44 59 -92 24 -48 48 -95 54 -106 7
-11 25 -50 41 -86 36 -81 57 -94 68 -41 7 37 7 134 -1 179 -9 46 11 22 32 -39
25 -73 114 -357 116 -373 1 -5 14 -48 28 -95 15 -47 29 -100 33 -118 9 -46 32
-51 60 -16 13 16 27 26 31 21 4 -4 8 -44 10 -90 1 -71 33 -251 51 -297 8 -18
7 -17 17 -59 5 -19 15 -48 22 -65 13 -29 14 -25 13 64 -1 135 0 150 11 150 15
0 37 -49 80 -183 46 -141 62 -164 90 -129 14 17 18 36 15 77 -4 57 2 69 25 55
16 -10 40 -2 40 14 0 7 -12 19 -26 27 -27 14 -104 122 -104 145 0 7 -4 14 -8
16 -15 6 -78 147 -92 205 -7 28 -4 35 18 52 22 16 26 27 28 82 l3 64 -25 -30
c-71 -86 -89 -94 -96 -46 -5 33 34 157 78 248 15 32 28 60 29 63 4 20 76 144
176 301 155 244 205 347 225 464 3 17 9 46 14 65 5 19 12 49 14 65 3 17 8 41
11 55 3 14 7 43 10 65 2 22 7 60 10 84 6 45 16 165 15 191 -2 70 6 137 19 172
5 13 5 32 1 43 -5 11 -14 46 -21 78 -7 32 -16 60 -21 63 -4 3 -8 13 -8 23 0
10 -7 24 -15 31 -8 7 -13 15 -10 19 2 4 -14 31 -36 59 -21 29 -39 55 -39 58 0
3 -6 11 -12 18 -7 7 -29 32 -48 56 -19 24 -47 58 -61 75 -14 16 -35 41 -47 55
-178 212 -372 421 -642 690 -296 297 -489 468 -612 546 -49 31 -215 197 -266
267 -63 85 -63 86 -36 142 32 65 32 182 0 320 -3 11 -14 47 -26 80 -11 33 -32
96 -47 140 -27 86 -46 115 -73 115 -20 0 -30 19 -30 55 0 26 -21 42 -80 61
l-35 12 40 1 c52 2 137 32 143 50 3 8 0 11 -6 8 -14 -9 -32 16 -23 32 5 7 21
12 37 11 51 -4 64 0 64 15 0 9 -9 15 -22 16 -13 0 -47 1 -76 2 -30 1 -55 1
-56 -1z m-540 -1028 c2 -27 7 -93 9 -148 4 -98 14 -128 54 -167 32 -30 48 -29
112 12 34 22 68 47 76 55 8 8 16 14 19 14 2 0 3 -49 1 -109 -2 -108 -2 -110
26 -139 38 -39 37 -74 -3 -147 -48 -90 -103 -161 -199 -255 -104 -103 -150
-140 -261 -212 -96 -62 -146 -82 -207 -83 l-42 -1 19 31 c106 170 264 471 305
578 34 91 40 134 49 362 8 180 19 275 32 262 2 -2 7 -26 10 -53z m1219 -2049
c2 -11 6 -31 9 -45 3 -14 11 -50 17 -80 12 -65 17 -85 19 -85 1 0 3 -10 6 -23
2 -12 18 -59 35 -103 35 -91 91 -159 131 -159 30 0 71 -42 87 -89 16 -49 15
-141 -2 -141 -8 0 -40 9 -73 20 -130 45 -143 44 -279 -31 l-110 -61 -60 32
c-33 18 -91 49 -130 69 -131 70 -205 86 -244 51 -30 -25 -47 -25 -61 -1 -15
29 12 93 69 164 51 64 111 173 111 200 0 9 4 18 9 21 5 3 12 18 16 33 3 16 31
79 61 141 61 126 64 128 147 92 26 -11 65 -22 88 -25 47 -4 107 16 114 40 16
51 17 51 27 25 5 -14 11 -34 13 -45z"/>
<path d="M4885 11553 c-98 -29 -237 -139 -251 -200 -4 -15 -17 -42 -30 -59
-13 -17 -21 -34 -18 -37 7 -7 62 12 91 31 20 13 24 12 29 -2 3 -9 4 -23 0 -31
-7 -18 -65 -55 -87 -55 -16 0 -28 -17 -34 -47 -5 -20 -19 -40 -73 -99 -73 -81
-66 -72 -126 -186 -70 -132 -179 -409 -190 -483 -1 -5 -4 -14 -7 -20 -6 -10
-20 -57 -25 -85 -1 -8 -9 -42 -17 -75 -14 -53 -25 -100 -32 -130 -8 -33 -26
-139 -30 -176 -3 -24 -7 -53 -9 -65 -2 -11 -7 -63 -10 -114 -4 -52 -9 -96 -12
-99 -13 -13 -42 47 -53 108 -11 66 -13 78 -27 181 -4 30 -8 57 -9 60 -1 3 -5
17 -9 32 -22 77 -91 15 -111 -99 -12 -66 -14 -244 -4 -271 5 -15 16 -32 25
-38 8 -6 17 -31 20 -55 7 -61 11 -69 28 -63 10 4 20 -4 28 -23 7 -15 24 -40
39 -55 24 -24 42 -71 54 -138 3 -14 7 -36 9 -50 3 -14 8 -41 10 -60 3 -19 8
-46 11 -60 2 -13 7 -49 10 -80 3 -31 7 -67 10 -80 3 -14 8 -45 11 -70 3 -24
26 -117 50 -205 24 -88 44 -174 44 -190 0 -19 7 -35 20 -43 11 -7 20 -22 20
-33 0 -42 99 -387 131 -454 5 -11 11 -29 12 -40 2 -11 6 -27 9 -35 13 -35 44
-148 52 -191 18 -92 26 -151 31 -214 9 -127 26 -237 59 -374 19 -81 66 -196
98 -243 22 -32 44 -39 28 -8 -6 10 -20 63 -31 117 -11 54 -22 107 -25 118 -2
11 -8 45 -14 75 -6 30 -12 66 -15 80 -12 58 -16 82 -30 188 -5 34 3 26 26 -28
12 -27 27 -50 35 -50 35 0 39 167 8 325 -2 11 -7 34 -9 50 -3 17 -17 73 -31
125 -14 52 -27 102 -29 110 -2 8 -4 16 -5 18 -2 1 -3 5 -5 10 -1 4 -5 16 -9
27 -4 11 -17 45 -28 75 -12 30 -53 118 -93 195 -70 136 -87 175 -155 355 -18
47 -46 114 -62 150 -16 36 -34 88 -39 115 -18 87 -7 751 16 1050 7 88 34 201
71 292 52 129 136 315 193 423 28 52 57 109 65 125 9 17 41 59 73 95 70 81
158 213 201 305 19 39 38 78 43 87 5 10 9 27 9 37 0 43 43 129 90 181 71 79
67 97 -15 73z"/>
<path d="M8689 9123 c-1 -15 -3 -37 -4 -48 -1 -11 -6 -56 -9 -99 -4 -44 -9
-82 -11 -85 -2 -3 -6 -30 -10 -60 -4 -30 -8 -61 -10 -70 -4 -14 -41 -190 -50
-231 -29 -139 -87 -333 -107 -357 -22 -27 -31 -13 -25 40 3 28 9 62 12 75 13
57 16 72 21 145 3 43 14 106 24 140 13 41 16 65 9 73 -16 19 -30 75 -33 127
-3 44 -15 78 -17 46 0 -8 -2 -21 -4 -29 -3 -15 -11 -55 -20 -107 -2 -16 -9
-43 -14 -61 -5 -18 -10 -35 -10 -37 1 -16 -14 -71 -21 -80 -5 -5 -8 -12 -8
-15 2 -10 -35 -117 -59 -170 -14 -30 -29 -64 -34 -75 -5 -11 -13 -27 -17 -35
-23 -41 -32 -61 -32 -75 0 -8 -4 -15 -8 -15 -5 0 -10 -8 -11 -17 -5 -57 -1
-85 24 -137 29 -61 36 -139 21 -241 -4 -27 -9 -68 -11 -91 -2 -22 -6 -54 -9
-70 -2 -16 -7 -49 -11 -74 -7 -49 -16 -99 -19 -115 -1 -5 -6 -26 -10 -45 -11
-47 -47 -130 -56 -130 -11 0 -19 50 -8 56 4 3 6 9 4 12 -2 4 0 30 5 57 5 27
11 75 14 105 6 77 16 170 20 200 2 14 7 74 11 135 14 238 13 251 -23 198 -18
-27 -48 -88 -42 -88 4 0 -113 -179 -120 -185 -14 -10 -141 -178 -141 -186 0
-14 -300 -434 -378 -529 -30 -37 -95 -151 -121 -215 -11 -26 -3 -187 14 -275
2 -11 4 -24 5 -30 0 -5 6 -1 12 10 64 114 209 305 231 305 16 0 67 51 67 67 0
7 4 13 8 13 9 0 35 55 47 97 5 17 16 25 44 29 51 8 62 16 65 48 3 25 50 86 67
86 29 0 7 -92 -52 -217 -16 -34 -29 -67 -29 -73 0 -5 -4 -10 -9 -10 -5 0 -13
-9 -16 -20 -4 -11 -24 -39 -45 -63 -21 -23 -60 -73 -86 -112 -83 -124 -118
-164 -226 -262 -40 -37 -47 -61 -54 -188 -3 -49 -6 -97 -8 -105 -15 -74 -19
-90 -27 -90 -16 0 -21 36 -28 198 -2 27 -43 10 -85 -35 -60 -63 -68 -99 -62
-291 5 -151 9 -199 21 -210 11 -12 15 10 20 114 11 245 16 308 25 323 41 74
30 -360 -15 -554 -14 -63 -84 -286 -99 -318 -21 -44 -36 -56 -36 -30 -1 16 -2
16 -12 -2 -7 -11 -14 -29 -16 -40 -7 -31 -7 -117 0 -148 10 -42 46 -86 76 -93
57 -12 59 -14 33 -35 -28 -23 -52 -24 -111 -3 -25 9 -62 17 -84 19 -42 3 -51
12 -60 65 -20 117 -26 545 -10 790 14 226 9 554 -11 680 -2 14 -6 43 -10 65
-5 33 -17 90 -51 238 -31 134 -105 362 -136 418 -14 26 -35 43 -71 59 -28 13
-71 45 -96 71 -59 62 -103 81 -256 115 -74 16 -272 21 -424 11 -127 -9 -195
-28 -253 -69 -51 -37 -118 -108 -118 -125 0 -7 -3 -13 -8 -13 -10 0 -59 -131
-73 -195 -15 -72 -17 -78 -23 -121 -4 -22 -9 -47 -12 -56 -3 -9 -7 -27 -9 -39
-5 -25 -54 -131 -65 -139 -3 -3 -18 -21 -32 -40 -25 -34 -38 -74 -44 -135 -2
-27 -6 -392 -4 -405 0 -3 3 -48 5 -100 2 -52 6 -113 9 -135 7 -51 40 -165 57
-196 7 -13 12 -26 11 -29 -1 -3 9 -39 22 -80 40 -123 49 -181 29 -187 -7 -3
-13 0 -13 6 0 6 -5 11 -10 11 -13 0 -99 91 -141 149 -26 37 -66 114 -110 216
-12 29 -49 134 -61 175 -17 60 -89 203 -112 222 -34 31 -168 118 -180 118 -17
0 -137 63 -203 106 -61 40 -172 146 -238 229 -105 131 -255 354 -255 381 0 7
-4 14 -8 16 -11 4 -92 191 -92 211 0 9 -4 18 -9 21 -5 3 -11 16 -14 28 -2 13
-16 53 -30 91 -14 37 -23 67 -21 67 3 0 -2 10 -10 22 -9 12 -16 32 -16 43 -1
23 -26 60 -33 48 -5 -10 0 -276 7 -368 10 -115 20 -171 35 -189 7 -9 4 -17 -9
-29 -23 -19 -25 -58 -9 -127 6 -25 12 -52 14 -60 15 -68 69 -205 134 -334 44
-90 67 -123 130 -186 81 -82 115 -108 150 -115 56 -11 220 -181 319 -330 40
-61 104 -139 164 -199 124 -124 139 -121 77 19 -5 11 -21 38 -35 60 -13 22
-27 48 -31 58 -3 9 -9 17 -13 17 -9 0 -61 122 -80 185 -6 22 -14 74 -17 115
-5 72 -5 74 13 60 11 -9 31 -22 46 -29 24 -12 30 -23 43 -81 1 -3 5 -25 9 -50
5 -25 10 -54 13 -65 2 -11 6 -30 8 -41 11 -49 93 -204 125 -234 16 -15 60
-111 60 -130 0 -13 13 -35 29 -49 27 -25 141 -204 141 -223 0 -13 -15 -9 -36
10 -10 9 -32 27 -47 39 -15 12 -67 58 -115 102 -171 156 -187 171 -199 171 -6
0 -13 4 -15 8 -6 17 -101 63 -188 92 -94 31 -203 79 -208 92 -2 4 -10 8 -17 8
-7 0 -15 4 -17 8 -5 12 -65 52 -77 52 -19 0 -12 -16 26 -60 37 -42 175 -160
188 -160 3 0 14 -8 25 -17 10 -10 57 -38 105 -62 47 -24 103 -60 124 -80 21
-20 47 -38 57 -40 31 -5 54 -21 54 -36 0 -12 95 -135 120 -155 18 -15 48 -68
51 -90 5 -32 20 -47 53 -56 33 -8 39 -17 23 -38 -9 -13 -28 -18 -67 -18 -58
-1 -180 11 -192 18 -5 3 -17 7 -29 9 -54 11 -310 250 -451 423 -22 27 -142
206 -143 212 0 3 -19 33 -43 67 -23 34 -42 66 -42 72 0 5 -4 11 -8 13 -7 3
-70 106 -146 238 -86 151 -196 390 -179 390 3 0 1 6 -5 13 -6 7 -13 26 -16 42
-8 40 -17 79 -31 133 -2 9 -22 103 -43 207 -37 178 -47 229 -58 315 -2 19 -6
46 -9 60 -3 14 -7 62 -10 107 -6 84 -29 157 -59 182 -17 15 -21 5 -6 -19 9
-15 -6 -44 -20 -35 -19 12 -92 -208 -126 -380 -2 -11 -6 -33 -10 -49 -3 -16
-7 -77 -9 -136 -1 -59 -8 -125 -16 -146 -7 -21 -14 -41 -14 -44 -1 -3 -4 -12
-8 -20 -8 -21 -20 -71 -22 -95 -2 -11 -6 -40 -9 -65 -4 -25 -9 -79 -11 -120
-7 -123 -23 -325 -26 -325 0 0 -2 -16 -4 -35 -2 -19 -6 -64 -9 -100 -3 -36 -8
-92 -11 -125 -3 -33 -8 -159 -10 -280 -3 -121 -7 -229 -9 -240 -2 -11 -5 -25
-5 -32 -1 -6 -8 -19 -17 -27 -9 -9 -17 -22 -18 -29 -1 -6 -5 -17 -8 -23 -4 -6
-10 -33 -13 -60 -4 -27 -8 -59 -10 -72 -2 -12 0 -20 6 -17 5 4 9 15 9 26 0 10
5 19 11 19 5 0 8 4 5 9 -7 11 13 71 23 71 5 0 6 -37 4 -82 -3 -46 -6 -175 -8
-288 -6 -341 -5 -331 -36 -359 -23 -21 -26 -27 -17 -47 6 -13 15 -24 19 -24
12 0 27 -62 24 -101 -5 -53 -9 -63 -27 -71 -12 -5 -18 -18 -18 -41 0 -33 -23
-67 -33 -50 -9 16 -17 70 -22 162 -5 89 -9 110 -19 100 -21 -21 -42 -509 -24
-560 8 -24 14 -27 49 -24 45 4 53 -5 55 -58 2 -51 21 -70 41 -40 22 33 32 28
27 -13 -6 -47 -8 -50 -49 -70 -40 -19 -125 -91 -125 -106 0 -11 61 -5 101 11
14 5 41 12 60 15 19 3 45 8 59 10 52 10 137 16 279 22 l148 6 -4 -43 c-8 -102
-8 -149 0 -149 4 0 6 -4 3 -8 -8 -13 30 -88 48 -95 15 -6 16 7 12 128 -5 172
3 184 100 156 35 -9 45 -18 57 -49 8 -21 18 -53 21 -72 14 -86 27 -119 52
-141 11 -8 25 -14 32 -13 6 1 17 2 23 3 13 1 6 93 -10 150 -28 93 -22 144 17
136 9 -1 39 -6 66 -9 72 -10 90 -22 80 -54 -19 -65 7 -152 41 -138 21 8 36
-11 42 -52 5 -38 3 -41 -28 -58 -19 -10 -41 -19 -49 -21 -15 -4 -203 -15 -227
-14 -7 1 -19 1 -25 2 -38 2 -144 -14 -162 -24 -12 -7 -48 -12 -81 -13 -139 -2
-333 -38 -421 -78 -40 -18 -55 -31 -60 -51 -4 -15 -2 -30 3 -34 6 -3 14 -17
19 -31 8 -27 9 -31 19 -98 12 -84 107 -145 245 -159 45 -4 58 -1 113 32 34 20
69 38 77 40 47 10 119 58 204 136 17 17 21 15 82 -33 35 -27 73 -61 84 -75 19
-24 19 -28 4 -44 -14 -16 -14 -18 3 -23 14 -4 18 -17 19 -51 1 -36 7 -52 29
-75 16 -17 35 -30 43 -30 42 0 312 -249 312 -288 0 -21 -28 -49 -85 -84 -37
-23 -44 -24 -80 -13 -22 6 -80 33 -130 60 -322 171 -355 186 -381 164 -26 -22
-14 -48 59 -122 87 -89 144 -136 258 -210 94 -62 111 -77 101 -93 -28 -44
-138 -49 -196 -9 -20 14 -55 28 -77 31 -38 6 -41 6 -31 -12 18 -33 76 -81 114
-95 35 -12 44 -26 23 -41 -15 -11 -211 -1 -301 15 -45 8 -93 23 -108 32 -36
24 -92 24 -116 -1 -22 -23 -31 -73 -32 -197 -1 -63 4 -104 15 -129 37 -87 403
-333 467 -313 13 4 20 15 20 30 0 34 16 39 47 15 26 -20 28 -20 34 -3 4 10 5
21 3 24 -6 11 40 47 69 54 33 9 34 2 8 -97 -36 -134 -48 -338 -24 -385 21 -40
35 -108 47 -223 4 -40 11 -84 21 -145 8 -50 -50 -74 -112 -48 -18 7 -35 13
-38 13 -3 0 -33 14 -68 30 -65 32 -107 65 -146 115 l-24 30 7 -39 c8 -44 35
-84 75 -114 68 -50 292 -136 451 -172 30 -7 78 -18 105 -26 44 -12 280 -63
360 -79 17 -3 41 -8 55 -10 112 -22 289 -50 385 -61 28 -3 58 -7 68 -10 10 -3
46 -8 80 -10 34 -3 82 -7 107 -9 137 -12 189 -16 330 -21 85 -3 198 -5 250 -4
52 1 104 1 115 0 27 -2 23 -2 160 4 109 5 158 8 365 21 36 2 88 6 115 9 28 3
84 8 125 11 41 3 86 8 100 10 84 12 118 17 145 21 28 4 149 28 203 39 65 14
161 41 195 54 15 6 38 13 50 15 39 7 216 74 301 114 95 45 146 89 146 127 l0
26 25 -28 25 -28 -2 40 c-3 33 -7 41 -26 43 -22 3 -23 7 -17 54 4 28 11 62 16
75 5 13 6 23 3 23 -4 0 -1 7 6 15 7 8 10 15 7 15 -3 0 0 20 7 45 8 25 12 45 9
45 -3 0 0 7 7 15 7 8 10 15 6 15 -11 0 57 174 83 214 42 62 59 99 65 137 4 24
20 51 45 77 56 58 70 125 47 230 -8 36 -46 53 -71 32 -47 -39 -205 90 -233
191 -25 92 18 231 78 251 21 7 3 26 -48 53 -33 17 -41 24 -27 25 117 7 185 33
185 71 0 9 -32 10 -129 6 l-129 -6 -7 62 c-5 34 -8 65 -7 68 3 15 -40 43 -70
46 -17 2 -39 10 -48 18 -9 8 -20 15 -24 15 -15 0 -55 46 -61 70 -4 21 1 29 32
50 38 25 49 31 91 45 12 4 22 11 22 16 0 5 7 9 17 9 9 0 23 7 32 15 39 38 77
65 91 65 9 0 20 4 26 10 8 8 26 12 111 24 50 7 104 -69 82 -115 -9 -17 -77
-87 -157 -161 -64 -58 -52 -65 66 -38 48 10 98 21 112 23 34 6 101 45 125 74
25 28 85 43 85 20 0 -30 24 -37 58 -17 18 11 32 16 32 12 0 -8 -100 -133 -173
-216 -51 -58 -57 -99 -8 -52 15 14 54 39 86 56 74 37 198 125 256 182 10 9 20
14 23 11 13 -13 27 59 32 162 11 265 12 272 32 311 11 21 32 48 46 58 62 45
93 139 91 267 -1 58 -6 84 -21 104 -47 67 -52 78 -50 120 1 30 11 53 35 83 52
67 102 215 79 238 -4 3 -32 -20 -64 -53 l-57 -58 8 40 c13 69 15 195 3 221
-25 54 -49 19 -115 -171 -38 -109 -47 -125 -72 -125 -21 0 -61 41 -61 62 0 9
16 49 35 90 39 81 43 97 50 177 5 66 -3 111 -20 111 -21 0 -34 -24 -49 -93 -7
-37 -25 -90 -40 -119 -22 -45 -31 -76 -35 -121 -1 -12 -76 1 -141 25 -30 11
-62 21 -70 23 -8 2 -35 11 -59 19 -25 9 -56 18 -70 21 -14 3 -37 7 -51 11 -54
12 -140 9 -189 -7 -28 -9 -51 -13 -51 -10 0 3 23 21 50 40 52 35 69 37 178 16
18 -4 64 1 102 9 93 21 94 21 135 -20 33 -33 38 -35 58 -21 21 14 63 77 51 77
-4 0 -2 6 4 12 9 12 27 98 25 126 0 6 -1 23 -2 36 -1 25 -25 56 -42 56 -12 0
-69 -61 -69 -73 0 -11 -26 -37 -38 -37 -17 0 -19 34 -7 83 18 72 24 74 107 48
40 -12 82 -26 93 -31 11 -4 36 -13 55 -20 45 -16 85 -33 195 -85 121 -58 135
-62 135 -36 0 11 -5 23 -11 27 -25 15 -56 111 -59 184 -4 79 0 97 30 128 17
18 30 35 31 39 0 5 2 15 4 23 2 8 6 25 9 38 3 12 7 25 9 30 3 4 8 23 11 42 13
76 19 107 31 160 1 3 5 28 9 57 7 47 5 55 -16 76 -12 13 -42 44 -64 68 -87 92
-201 184 -270 216 -19 9 -34 20 -34 25 0 4 -5 8 -12 8 -19 0 -138 59 -138 69
0 33 68 10 159 -52 81 -56 186 -103 238 -106 6 -1 30 -19 53 -41 23 -22 46
-40 51 -40 5 0 9 -3 9 -7 0 -5 12 -14 27 -20 31 -15 42 -5 44 37 7 144 2 196
-22 246 -11 22 -97 82 -194 135 -85 45 -103 59 -85 60 43 5 60 3 109 -13 70
-23 142 -71 161 -108 23 -44 42 -25 42 41 0 89 -16 156 -51 213 -18 29 -22 54
-26 180 -2 80 -6 150 -9 154 -2 4 -8 35 -11 67 -4 33 -9 63 -11 66 -1 3 -6 28
-9 55 -4 27 -9 63 -12 79 -3 17 -6 47 -7 67 -1 21 -4 38 -7 38 -3 0 -5 10 -4
22 1 12 -2 40 -6 63 -4 22 -10 63 -13 90 -19 153 -31 197 -54 193 -12 -2 -16
3 -14 17 11 91 3 153 -30 235 -31 75 -45 123 -63 208 -3 12 -7 32 -11 45 -3
12 -7 33 -10 47 -3 14 -14 62 -24 106 -35 144 -23 138 61 -31 33 -69 65 -125
70 -125 17 0 15 106 -5 230 -3 14 -7 43 -11 65 -3 22 -10 63 -15 90 -17 90
-21 110 -25 140 -3 17 -7 41 -10 55 -5 25 -29 146 -40 205 -3 17 -8 46 -11 65
-3 19 -7 41 -9 48 -3 7 -7 32 -11 57 -3 24 -9 57 -13 71 l-7 27 -22 -37 c-40
-67 -48 -128 -67 -501 -9 -172 -22 -257 -35 -236 -4 7 -6 30 -4 50 11 92 10
112 -1 121 -23 19 -34 -15 -40 -120 -4 -57 -9 -109 -13 -114 -22 -37 -21 162
2 425 3 24 7 76 11 114 3 39 8 86 11 105 2 19 7 58 9 85 3 28 7 59 9 71 4 20
16 104 21 154 2 14 5 39 8 55 5 27 14 125 22 225 1 19 6 85 10 145 11 143 12
456 3 462 -5 2 -9 -8 -9 -24z m-264 -1433 c22 -35 22 -236 0 -350 -2 -14 -7
-36 -9 -50 -2 -14 -12 -56 -21 -95 -21 -86 -21 -87 -28 -105 -3 -8 -14 -49
-25 -90 -44 -165 -76 -272 -243 -805 -12 -38 -44 -137 -71 -220 -27 -82 -51
-154 -52 -160 -2 -5 -6 -19 -10 -30 -5 -11 -12 -31 -16 -45 -4 -14 -12 -34
-16 -45 -4 -11 -8 -22 -9 -25 -1 -3 -4 -12 -8 -20 -9 -24 -71 -214 -73 -225
-1 -5 -9 -35 -18 -66 -23 -79 -27 -101 -15 -97 6 2 20 21 32 43 12 22 30 48
39 59 16 17 18 18 24 2 3 -9 3 -33 -1 -54 -5 -20 -9 -44 -10 -52 -1 -8 -8 -35
-15 -60 -7 -25 -14 -49 -15 -55 -2 -5 -17 -44 -35 -86 -32 -77 -156 -246 -177
-242 -17 4 -28 -16 -51 -90 -37 -113 -27 -156 40 -172 43 -11 138 -135 132
-172 -1 -7 -2 -18 -3 -24 -1 -7 -21 -10 -53 -7 -41 2 -53 0 -53 -11 0 -24 -20
-23 -59 4 -44 30 -48 30 -70 7 -21 -24 -106 -259 -141 -392 -27 -99 -29 -107
-40 -160 -16 -77 -22 -110 -30 -183 -3 -31 -13 -76 -21 -99 -15 -42 -15 -43
14 -68 70 -60 80 -68 88 -71 10 -4 175 -118 205 -142 9 -6 23 -26 31 -42 9
-17 26 -39 38 -50 42 -37 44 -62 11 -130 -37 -76 -49 -130 -40 -173 9 -45 14
-48 49 -31 32 16 362 336 398 387 37 51 54 56 120 33 100 -36 127 -33 165 16
27 33 38 19 22 -27 -8 -22 -14 -43 -14 -45 1 -3 -2 -24 -6 -48 -10 -55 -50
-110 -228 -301 -20 -23 -57 -70 -81 -106 -41 -60 -142 -171 -194 -212 -23 -18
-102 -31 -102 -16 0 5 -4 7 -10 3 -14 -9 -104 40 -182 100 -38 29 -81 59 -96
66 -15 8 -29 17 -32 20 -3 3 -54 33 -115 66 -97 53 -146 83 -245 150 -135 91
-350 323 -350 377 0 8 -4 17 -9 20 -11 7 -65 146 -75 192 -7 29 -6 30 22 26
18 -2 33 2 41 12 18 22 31 20 31 -3 0 -11 -9 -23 -20 -26 -11 -3 -20 -9 -21
-13 0 -4 -3 -19 -5 -34 -7 -45 22 -24 49 35 36 77 52 134 62 222 10 82 15 121
18 135 15 67 21 87 29 98 6 6 8 12 5 12 -3 0 12 37 33 83 37 78 63 159 74 237
9 62 17 94 34 130 20 44 36 60 57 60 27 0 85 31 85 45 0 8 -6 20 -13 27 -32
32 -59 92 -60 129 -1 47 13 60 57 53 17 -3 42 -6 56 -9 50 -7 68 5 89 59 10
28 22 69 25 90 20 125 35 145 118 160 38 7 48 20 54 75 5 53 39 112 112 197
101 118 133 167 196 304 78 168 73 158 95 220 22 63 83 220 102 265 7 17 13
32 14 35 1 3 7 19 14 35 7 17 11 30 10 30 -1 0 8 19 20 43 12 23 18 42 14 42
-5 0 -32 -23 -61 -50 -112 -106 -192 -162 -192 -134 0 4 18 40 40 82 22 41 50
106 61 145 12 38 39 104 60 147 50 101 62 130 72 175 9 36 73 197 117 290 55
119 88 197 94 226 3 13 17 65 31 114 14 50 27 99 29 110 2 11 9 41 15 68 11
47 20 100 25 141 3 30 27 99 39 114 11 14 24 16 32 2z m-377 -743 c-9 -18 -23
-48 -31 -67 -9 -19 -25 -57 -36 -84 -12 -27 -21 -56 -21 -66 0 -10 -7 -23 -15
-30 -8 -6 -14 -15 -13 -18 4 -16 -62 -171 -187 -437 -18 -38 -35 -77 -39 -85
-3 -8 -10 -22 -16 -30 -9 -14 -44 -89 -152 -320 l-49 -105 6 55 c3 30 8 67 10
82 3 15 7 51 10 80 5 57 6 65 31 198 10 51 30 109 46 132 11 15 22 45 25 65 3
21 15 45 26 54 11 9 25 32 32 50 6 19 16 33 23 32 15 -4 32 26 32 58 0 6 25
35 55 64 30 30 55 59 55 65 0 5 4 10 9 10 5 0 11 8 15 18 3 9 15 31 26 47 11
17 45 80 75 142 49 100 80 141 94 127 3 -3 -2 -19 -11 -37z m-2333 -872 c0
-14 -3 -25 -7 -25 -5 0 -7 13 -6 30 3 34 11 31 13 -5z m3 -72 c1 -62 12 -245
17 -283 2 -19 7 -64 10 -100 14 -168 17 -194 31 -278 3 -17 7 -48 9 -67 3 -20
19 -94 36 -167 32 -135 65 -223 94 -252 10 -9 15 -19 13 -21 -4 -4 -40 -12
-62 -14 -4 -1 -5 -8 -2 -16 7 -19 141 -220 170 -256 12 -14 34 -43 51 -65 31
-40 293 -306 332 -336 31 -24 67 -43 76 -40 15 4 126 -117 133 -144 9 -37 -8
-48 -78 -49 -75 0 -76 -3 -62 -117 4 -38 3 -58 -4 -58 -5 0 -47 31 -92 69 -45
38 -101 82 -124 98 -22 15 -43 31 -46 34 -3 3 -13 8 -22 12 -25 9 -11 -21 26
-56 34 -32 111 -87 121 -87 12 0 37 -30 33 -40 -2 -6 -27 1 -58 17 -60 29
-210 133 -210 145 0 5 -5 8 -11 8 -25 0 -239 212 -239 237 0 10 -38 77 -85
148 -47 71 -85 131 -85 133 0 2 -6 10 -12 17 -24 27 -34 41 -119 170 -48 72
-101 157 -118 190 -18 33 -41 74 -51 91 -10 17 -29 51 -42 75 -13 24 -31 55
-40 69 -9 14 -26 44 -39 67 -13 23 -49 86 -80 140 -144 251 -240 480 -264 628
-13 84 -14 105 -4 111 11 6 49 -23 49 -37 0 -5 11 -32 24 -61 13 -29 31 -78
42 -108 10 -30 22 -59 26 -64 4 -6 8 -16 8 -24 0 -7 8 -32 19 -55 17 -40 31
-76 33 -87 6 -30 211 -411 266 -495 40 -60 87 -140 105 -177 17 -38 35 -68 38
-68 3 0 5 14 4 31 -4 61 9 94 35 96 14 0 30 1 37 2 13 1 9 63 -7 116 -5 17
-11 41 -14 55 -3 14 -7 34 -9 45 -16 75 -21 101 -22 110 -1 6 -7 37 -15 70
-21 98 -15 512 10 620 7 34 17 -60 17 -175 1 -123 8 -221 18 -260 2 -8 7 -28
10 -45 2 -16 7 -40 10 -52 3 -13 7 -33 10 -45 2 -13 7 -35 11 -50 3 -15 5 -30
5 -33 0 -2 5 -19 10 -37 6 -18 12 -41 14 -52 3 -10 11 -43 20 -72 9 -30 16
-57 16 -61 1 -5 12 -37 25 -72 24 -64 40 -91 54 -91 8 0 4 108 -6 160 -4 19
-7 38 -6 41 1 4 -5 49 -12 100 -43 292 -51 408 -47 722 1 76 17 111 19 40z
m591 -310 c32 -103 52 -175 58 -208 2 -11 17 -73 33 -138 23 -92 38 -131 68
-175 38 -56 102 -183 117 -232 4 -14 11 -29 15 -35 4 -5 15 -35 24 -65 34
-105 89 -235 113 -267 13 -18 36 -36 51 -39 15 -4 35 -12 45 -19 15 -11 12
-16 -35 -47 -41 -27 -58 -33 -73 -26 -27 12 -84 88 -115 152 -20 41 -31 52
-52 54 -43 5 -42 -32 2 -87 16 -20 40 -58 54 -85 14 -27 30 -54 34 -60 16 -20
42 -96 33 -96 -35 0 -169 125 -226 213 -33 49 -55 70 -55 51 0 -8 73 -138 117
-209 19 -30 53 -106 53 -117 0 -23 -75 44 -153 135 -10 12 -28 33 -40 47 -19
21 -76 91 -110 135 -55 71 -93 132 -121 190 -38 79 -55 97 -88 95 -56 -5 -78
1 -93 24 -19 29 -30 122 -15 131 6 3 10 -4 11 -17 3 -53 16 -88 35 -89 42 -3
61 -2 81 5 21 7 21 10 16 157 -5 150 -5 151 16 140 11 -6 25 -20 31 -31 6 -11
16 -20 22 -20 7 0 8 39 4 128 -13 252 -14 272 -5 267 5 -3 18 -38 29 -78 12
-40 25 -83 29 -97 5 -14 19 -59 31 -100 48 -164 84 -259 103 -272 7 -4 7 -11
-1 -21 -18 -21 9 -42 35 -28 42 22 48 55 30 154 -9 51 -30 148 -47 217 -17 69
-33 136 -35 150 -6 35 -13 69 -19 88 -3 9 -8 29 -11 45 -3 15 -7 39 -10 55 -3
15 -8 34 -10 42 -8 28 -15 80 -11 80 2 0 18 -44 35 -97z m-599 -1982 c0 -10
-33 -68 -73 -127 -94 -140 -141 -208 -148 -214 -3 -3 -39 -57 -80 -120 -112
-172 -113 -173 -127 -200 -61 -119 -130 -179 -193 -166 -16 3 -45 20 -64 39
-18 18 -44 33 -56 34 -26 2 -142 -52 -214 -99 -142 -94 -274 -166 -323 -174
-35 -7 -70 21 -82 64 -8 32 -8 56 -1 125 1 4 8 7 17 7 8 0 12 5 9 10 -3 6 -1
10 5 10 7 0 8 6 0 19 -15 28 -14 29 33 41 54 14 137 51 137 62 0 4 5 8 11 8
12 0 174 111 219 150 l28 25 -25 55 c-87 188 -93 203 -84 218 6 10 346 101
441 118 14 3 52 12 85 21 33 8 67 17 75 18 8 2 15 4 15 5 0 1 7 3 15 5 13 3
161 38 275 65 100 24 105 24 105 1z m-240 -2307 c30 -9 64 -24 75 -34 31 -28
73 -41 150 -45 39 -3 90 -7 115 -11 25 -3 52 -7 60 -8 8 -1 37 -12 63 -24 27
-12 55 -22 62 -22 8 0 17 -5 20 -10 4 -6 10 -8 15 -5 18 11 120 -32 120 -52 0
-18 16 -17 24 2 3 10 19 15 45 15 30 0 40 4 44 20 8 30 36 25 43 -7 12 -59 21
-70 62 -77 22 -3 42 -12 45 -20 6 -14 -35 -61 -45 -51 -12 12 -41 -39 -54 -92
-13 -55 -27 -232 -27 -338 0 -111 6 -146 30 -171 23 -25 43 -25 43 0 0 17 48
107 64 120 22 19 162 189 198 241 44 64 62 68 79 18 7 -21 14 -45 15 -53 1 -8
5 -40 9 -70 17 -140 36 -254 43 -267 6 -10 13 4 21 42 18 79 20 105 25 261 5
158 11 215 32 297 17 71 40 101 77 104 15 1 50 16 78 32 54 34 96 40 106 15 7
-20 -7 -33 -42 -40 -30 -5 -54 -28 -56 -54 0 -8 -3 -26 -5 -40 -31 -183 -32
-475 -1 -535 21 -42 42 -44 60 -8 18 37 21 81 20 316 0 108 4 197 8 197 10 0
76 -38 105 -60 30 -22 36 -47 16 -62 -40 -30 -47 -50 -49 -147 -3 -149 -11
-202 -36 -251 -32 -62 -69 -81 -159 -81 -75 0 -98 -9 -98 -40 0 -18 -32 -35
-48 -25 -5 3 -25 -3 -46 -13 l-36 -19 -17 29 c-17 29 -53 40 -53 17 1 -7 7
-24 15 -38 17 -29 19 -60 5 -60 -6 0 -9 3 -9 7 4 23 -4 32 -32 38 -26 6 -30
11 -26 32 3 18 1 23 -10 19 -8 -3 -18 -6 -23 -6 -4 0 -13 -13 -18 -29 -11 -31
-65 -65 -145 -91 -45 -14 -45 -16 8 -24 22 -3 49 -8 60 -10 11 -3 38 -5 59 -5
72 -2 32 -10 -69 -15 -112 -5 -137 -11 -133 -35 3 -14 -7 -16 -74 -13 -52 2
-93 -2 -125 -13 -69 -24 -391 -19 -743 9 -98 8 -283 30 -336 40 -10 2 -53 9
-94 16 -105 17 -250 55 -301 79 -24 12 -69 43 -99 71 -30 27 -58 51 -62 51 -5
1 -14 2 -20 3 -7 0 -17 11 -22 23 -6 12 -27 27 -50 34 -61 20 -69 31 -82 114
-3 22 -12 55 -20 74 -21 51 -17 67 24 93 37 23 81 66 82 81 0 4 11 30 24 57
19 38 23 61 19 93 -9 72 -4 100 30 166 38 76 113 162 171 196 50 29 78 33 256
40 330 13 396 18 408 29 6 6 75 -5 132 -20z m2472 -61 c15 -39 24 -41 34 -11
11 34 33 53 47 39 15 -15 18 -93 3 -111 -13 -17 -38 -95 -56 -180 -6 -30 -13
-61 -16 -68 -2 -7 -3 -15 -3 -17 0 -3 -8 -19 -18 -36 -18 -30 -59 -59 -86 -59
-36 0 -51 -27 -51 -91 -1 -51 -4 -64 -16 -62 -14 3 -70 -73 -70 -94 0 -18 -94
-110 -125 -121 -58 -22 -112 -1 -159 61 -50 65 -77 165 -51 187 19 15 27 -1
30 -61 3 -59 24 -94 68 -112 28 -12 44 -13 89 -8 23 3 120 114 123 141 0 3 5
12 10 20 6 8 20 44 32 80 19 59 21 81 16 223 -5 169 2 213 40 247 11 11 24 20
28 20 4 0 15 -20 25 -45 9 -25 21 -48 26 -51 10 -6 25 32 32 83 3 21 7 47 10
58 2 11 5 25 6 30 1 10 6 1 32 -62z"/>
<path d="M5023 1303 c-14 -5 -17 -42 -5 -58 17 -24 57 -35 149 -41 54 -3 99
-7 100 -8 3 -3 3 -44 2 -311 -1 -132 1 -253 4 -270 2 -16 5 -33 6 -37 0 -5 5
-8 10 -8 23 0 42 130 56 385 9 159 12 196 18 202 3 3 52 6 109 8 108 2 138 9
138 30 0 12 -55 39 -102 50 -67 14 -127 26 -158 30 -19 2 -46 6 -59 9 -13 3
-58 8 -100 11 -42 3 -94 7 -116 9 -22 2 -46 1 -52 -1z"/>
<path d="M5747 1269 c-72 -8 -90 -22 -51 -41 36 -17 40 -42 37 -213 -8 -517
-8 -534 9 -551 16 -16 19 -16 42 -1 23 15 42 63 39 97 -3 27 -9 49 -15 55 -11
12 13 100 37 131 21 27 106 94 120 94 2 0 23 13 47 29 107 72 185 163 106 123
-18 -8 -53 -16 -78 -17 -25 -1 -77 -16 -118 -34 -41 -18 -76 -30 -78 -28 -7 7
-17 114 -17 175 0 40 5 56 19 67 28 22 60 15 56 -11 -4 -28 38 -59 98 -71 50
-10 80 -7 80 9 0 15 -108 123 -153 153 -47 32 -104 43 -180 34z"/>
</g>
</svg>
